M48
;Layer_Color=9474304
;FILE_FORMAT=2:5
INCH,TZ
;TYPE=PLATED
T1F00S00C0.00787
T2F00S00C0.01181
T4F00S00C0.03150
T6F00S00C0.03543
T7F00S00C0.04000
T8F00S00C0.04724
T9F00S00C0.05118
T10F00S00C0.12520
T11F00S00C0.12598
;TYPE=NON_PLATED
T12F00S00C0.03150
%
T01
X98094Y96653
Y100984
Y105315
X102425
X106756
Y100984
X102425
Y96653
X106756
T02
X354218Y4800
X357100Y20800
Y38323
X357134Y52124
X350800Y50000
X348200Y31743
X349272Y84413
X354334
X355257Y97936
X353300Y112100
X224900Y79300
X201300Y84200
X189832Y91800
X186764Y75216
X182400Y76100
X182739Y72280
X176156Y73796
X180029Y78173
X176400Y100400
X164300Y109400
X156560Y84540
X152000Y77400
X144876Y75266
X140000Y86638
X138000Y100500
X129456Y97732
X125300Y90100
X126600Y73400
X134900Y63032
X139938Y63000
X149828Y63739
X160000Y61439
X169800Y21200
X172500Y19300
X175400Y17300
X107827Y50325
X98882Y52786
X95098Y53184
X92200Y56300
X93100Y67400
X101441Y70451
X102425Y82323
X105018Y80187
X94846Y78711
X96200Y84177
X80900Y77860
X76872Y71409
X62345Y78229
X51800Y64200
X62800Y52200
X61150Y103450
X61900Y116300
X77366Y103999
X77900Y96047
X80900Y90600
X94458Y116252
X118299Y115971
X40400Y107600
X37700Y97000
X35576Y82800
X36300Y129900
X44378Y137988
X53188
X53600Y145100
X45300Y153100
X40100Y161700
X39249Y143120
X59700Y171630
X85300Y150900
X92976Y125000
X94100Y121800
X110200Y125000
X113921Y122521
X120503Y127032
X138200Y123900
X157600Y121000
X167900Y127300
X176300Y122800
X160800Y145800
X154097Y157311
X209521Y117220
X351100Y126000
X349700Y139900
X346800Y152900
T04
X168761Y143472
X177264
X185768
Y160480
X177264
X168761Y160401
X194272Y160480
X202776
X211280
X219784
X228288
X236792
X245296
X253800
X262304
Y143472
X253800
X245296
X236792
X228288
X219784
X211280
X202776
X194272
T06
X67729Y180929
X77729
T07
X200874Y99000
X210874
X220874
X230874
X240874
Y109000
X250874
X260874
X270874
X280874
X290874
X300874
X310874
Y99000
X300874
X290874
X280874
X270874
X260874
X250874
X230874Y109000
X220874
X210874
X200874
T08
X98508Y31307
X109413
X120319
X131224
X142130
X153035
X163941
X169394Y42488
X158488
X147583
X136677
X125772
X114866
X103961
X93055
T09
X242929Y9898
X282299
X292142Y49268
X282299Y59110
X262614Y49268
Y68953
X242929Y59110
X233087Y49268
T10
X123485Y151898
X307737
T11
X196776Y36898
X65673
T12
X315176Y17866
X334861
M30
