G04*
G04 #@! TF.GenerationSoftware,Altium Limited,Altium Designer,21.1.1 (26)*
G04*
G04 Layer_Physical_Order=1*
G04 Layer_Color=255*
%FSLAX25Y25*%
%MOIN*%
G70*
G04*
G04 #@! TF.SameCoordinates,C9F6B278-B4AD-4305-9E7D-9AC12232687F*
G04*
G04*
G04 #@! TF.FilePolarity,Positive*
G04*
G01*
G75*
%ADD11C,0.00984*%
%ADD16O,0.02165X0.05512*%
%ADD17O,0.05512X0.02165*%
%ADD18R,0.03543X0.03150*%
%ADD19R,0.01260X0.01968*%
%ADD20R,0.03740X0.03543*%
%ADD21R,0.03543X0.03740*%
%ADD22R,0.07087X0.05118*%
%ADD23R,0.02362X0.04724*%
G04:AMPARAMS|DCode=24|XSize=31.5mil|YSize=29.53mil|CornerRadius=7.38mil|HoleSize=0mil|Usage=FLASHONLY|Rotation=0.000|XOffset=0mil|YOffset=0mil|HoleType=Round|Shape=RoundedRectangle|*
%AMROUNDEDRECTD24*
21,1,0.03150,0.01476,0,0,0.0*
21,1,0.01673,0.02953,0,0,0.0*
1,1,0.01476,0.00837,-0.00738*
1,1,0.01476,-0.00837,-0.00738*
1,1,0.01476,-0.00837,0.00738*
1,1,0.01476,0.00837,0.00738*
%
%ADD24ROUNDEDRECTD24*%
%ADD25R,0.03937X0.04134*%
%ADD26R,0.04134X0.03937*%
%ADD27O,0.02362X0.05709*%
%ADD28R,0.01772X0.05118*%
G04:AMPARAMS|DCode=56|XSize=98.43mil|YSize=314.96mil|CornerRadius=24.61mil|HoleSize=0mil|Usage=FLASHONLY|Rotation=90.000|XOffset=0mil|YOffset=0mil|HoleType=Round|Shape=RoundedRectangle|*
%AMROUNDEDRECTD56*
21,1,0.09843,0.26575,0,0,90.0*
21,1,0.04921,0.31496,0,0,90.0*
1,1,0.04921,0.13287,0.02461*
1,1,0.04921,0.13287,-0.02461*
1,1,0.04921,-0.13287,-0.02461*
1,1,0.04921,-0.13287,0.02461*
%
%ADD56ROUNDEDRECTD56*%
%ADD57C,0.01378*%
%ADD58C,0.01968*%
%ADD59C,0.01772*%
%ADD60O,0.08661X0.11811*%
%ADD61C,0.09843*%
%ADD62C,0.07087*%
%ADD63R,0.07087X0.07087*%
%ADD64C,0.19685*%
%ADD65O,0.05512X0.09843*%
%ADD66R,0.07874X0.07874*%
%ADD67C,0.07874*%
%ADD68C,0.03150*%
%ADD69O,0.04528X0.07087*%
%ADD70O,0.05709X0.07874*%
%ADD71C,0.06800*%
%ADD72R,0.06800X0.06800*%
%ADD73C,0.01968*%
G36*
X386362Y196948D02*
Y190711D01*
X374858D01*
Y184760D01*
Y178809D01*
X386654D01*
Y174906D01*
X361071D01*
X360223Y174794D01*
X359433Y174467D01*
X358754Y173946D01*
X358234Y173268D01*
X357906Y172478D01*
X357795Y171630D01*
Y170674D01*
X332587D01*
X332352Y170772D01*
X331648D01*
X330996Y170502D01*
X330498Y170004D01*
X330228Y169352D01*
Y168648D01*
X330498Y167996D01*
X330996Y167498D01*
X331648Y167228D01*
X332352D01*
X333004Y167498D01*
X333169Y167664D01*
X357795D01*
Y166709D01*
X357906Y165861D01*
X358234Y165070D01*
X358754Y164392D01*
X359433Y163871D01*
X360223Y163544D01*
X361071Y163432D01*
X386303D01*
X386657Y163079D01*
X386656Y159315D01*
X361071D01*
X360223Y159204D01*
X359433Y158876D01*
X358754Y158356D01*
X358234Y157677D01*
X357906Y156887D01*
X357795Y156039D01*
Y155084D01*
X332914D01*
X332370Y155309D01*
X331665D01*
X331014Y155040D01*
X330516Y154541D01*
X330246Y153890D01*
Y153185D01*
X330516Y152534D01*
X331014Y152036D01*
X331665Y151766D01*
X332370D01*
X333021Y152036D01*
X333059Y152073D01*
X357795D01*
Y151118D01*
X357906Y150270D01*
X358234Y149480D01*
X358754Y148801D01*
X359322Y148365D01*
X359459Y147795D01*
X359385Y147721D01*
X359164Y147391D01*
X358834Y146593D01*
X358756Y146203D01*
Y145340D01*
X358834Y144950D01*
X359164Y144152D01*
X359385Y143822D01*
X359441Y143766D01*
X359309Y143191D01*
X358754Y142765D01*
X358234Y142087D01*
X357906Y141297D01*
X357802Y140505D01*
X332995D01*
X332352Y140772D01*
X331648D01*
X330996Y140502D01*
X330498Y140004D01*
X330228Y139352D01*
Y138648D01*
X330498Y137996D01*
X330996Y137498D01*
X331648Y137228D01*
X332352D01*
X332995Y137495D01*
X357795D01*
Y135527D01*
X357906Y134679D01*
X358234Y133889D01*
X358754Y133211D01*
X359433Y132690D01*
X360223Y132363D01*
X361071Y132251D01*
X386655D01*
Y128134D01*
X361071D01*
X360223Y128023D01*
X359433Y127695D01*
X358754Y127175D01*
X358234Y126496D01*
X357906Y125706D01*
X357795Y124858D01*
Y123903D01*
X336298D01*
X335568Y124633D01*
X335415Y125004D01*
X334916Y125502D01*
X334265Y125772D01*
X333560D01*
X332909Y125502D01*
X332411Y125004D01*
X332141Y124352D01*
Y123648D01*
X332411Y122996D01*
X332909Y122498D01*
X333560Y122228D01*
X333715D01*
X334611Y121333D01*
X335099Y121007D01*
X335675Y120892D01*
X357795D01*
Y119937D01*
X357906Y119089D01*
X358234Y118299D01*
X358754Y117620D01*
X359433Y117100D01*
X360223Y116772D01*
X361071Y116661D01*
X386502D01*
X386856Y116307D01*
X386856Y112544D01*
X361071D01*
X360223Y112432D01*
X359433Y112105D01*
X358754Y111584D01*
X358234Y110906D01*
X357906Y110116D01*
X357795Y109268D01*
Y108312D01*
X341817D01*
X335768Y114360D01*
X335502Y115004D01*
X335004Y115502D01*
X334352Y115772D01*
X333648D01*
X332996Y115502D01*
X332498Y115004D01*
X332228Y114352D01*
Y113648D01*
X332391Y113256D01*
X332070Y112772D01*
X331648D01*
X330996Y112502D01*
X330498Y112004D01*
X330228Y111352D01*
Y110648D01*
X330498Y109996D01*
X330996Y109498D01*
X331640Y109232D01*
X331854Y109017D01*
X331663Y108555D01*
X331648D01*
X330996Y108285D01*
X330498Y107787D01*
X330228Y107136D01*
Y106431D01*
X330498Y105780D01*
X330996Y105281D01*
X331284Y105162D01*
Y104621D01*
X330996Y104502D01*
X330498Y104004D01*
X330228Y103352D01*
Y102648D01*
X330498Y101996D01*
X330964Y101530D01*
X331000Y101446D01*
X331030Y100943D01*
X330659Y100572D01*
X330389Y99920D01*
Y99216D01*
X330656Y98573D01*
Y96473D01*
X330609Y96404D01*
X330495Y95828D01*
Y88337D01*
X329995Y88158D01*
X329622Y88407D01*
X329046Y88521D01*
X326499D01*
X325856Y88788D01*
X325151D01*
X324970Y88713D01*
X324554Y88990D01*
Y126700D01*
X326140Y128286D01*
X326532Y128872D01*
X326669Y129563D01*
Y179137D01*
X326532Y179828D01*
X326140Y180414D01*
X318277Y188277D01*
X317691Y188669D01*
X317000Y188806D01*
X121000D01*
X120309Y188669D01*
X119723Y188277D01*
X91296Y159851D01*
X90975Y159900D01*
X90772Y160033D01*
Y160108D01*
X90704Y160273D01*
X90669Y160447D01*
X90570Y160595D01*
X90502Y160759D01*
X90376Y160885D01*
X90277Y161033D01*
X90129Y161132D01*
X90004Y161258D01*
X89839Y161326D01*
X89691Y161425D01*
X89517Y161460D01*
X89352Y161528D01*
X89174D01*
X89000Y161562D01*
X88826Y161528D01*
X88648D01*
X88483Y161460D01*
X88309Y161425D01*
X88161Y161326D01*
X87996Y161258D01*
X87871Y161132D01*
X87723Y161033D01*
X87624Y160885D01*
X87498Y160759D01*
X87430Y160595D01*
X87331Y160447D01*
X87296Y160273D01*
X87228Y160108D01*
Y159930D01*
X87217Y159874D01*
X85268Y157925D01*
X84806Y158117D01*
Y175657D01*
X84669Y176349D01*
X84277Y176935D01*
X81804Y179408D01*
X82059Y180359D01*
Y181499D01*
X81764Y182600D01*
X81194Y183588D01*
X80388Y184394D01*
X79400Y184964D01*
X78299Y185259D01*
X77158D01*
X76057Y184964D01*
X75069Y184394D01*
X74263Y183588D01*
X73693Y182600D01*
X73398Y181499D01*
Y180359D01*
X73693Y179257D01*
X74207Y178367D01*
X74013Y178238D01*
X73676Y177733D01*
X73558Y177138D01*
Y175662D01*
X73676Y175067D01*
X74013Y174562D01*
X74518Y174225D01*
X75113Y174106D01*
X76786D01*
X77381Y174225D01*
X77886Y174562D01*
X77907Y174594D01*
X81194D01*
Y157748D01*
X80420Y156974D01*
X80321Y156826D01*
X80286Y156792D01*
X80138Y156693D01*
X80039Y156545D01*
X79914Y156419D01*
X79846Y156255D01*
X79747Y156107D01*
X79712Y155932D01*
X79644Y155768D01*
Y155590D01*
X79609Y155416D01*
X79644Y155241D01*
Y155063D01*
X79712Y154899D01*
X79747Y154724D01*
X79846Y154576D01*
X79891Y154468D01*
Y128763D01*
X77737Y126609D01*
X77345Y126023D01*
X77208Y125332D01*
Y124902D01*
X77070Y124209D01*
Y120862D01*
X77215Y120133D01*
X77628Y119514D01*
X78247Y119101D01*
X78976Y118956D01*
X79706Y119101D01*
X79879Y119216D01*
X80320Y118980D01*
Y112211D01*
X77717Y109608D01*
X77515Y109633D01*
X77449Y109677D01*
X77151Y110172D01*
X77162Y110224D01*
X73465D01*
Y111224D01*
X77162D01*
X77100Y111537D01*
X76731Y112088D01*
X76486Y112526D01*
X76899Y113144D01*
X77044Y113874D01*
X76899Y114604D01*
X76555Y115120D01*
X76514Y115449D01*
X76555Y115778D01*
X76899Y116294D01*
X77044Y117024D01*
X76899Y117753D01*
X76486Y118372D01*
X75867Y118785D01*
X75138Y118930D01*
X74970D01*
Y125434D01*
X74855Y126010D01*
X74529Y126498D01*
X66684Y134344D01*
X66195Y134670D01*
X66189Y134671D01*
Y136527D01*
X65135D01*
Y138244D01*
X66807D01*
Y143756D01*
X61114D01*
Y143968D01*
X58547D01*
Y141000D01*
Y138031D01*
X61114D01*
Y138244D01*
X62125D01*
Y136527D01*
X61302D01*
X60890Y136740D01*
X60890Y136740D01*
X60890Y136740D01*
X58618D01*
Y134165D01*
X58118D01*
Y133665D01*
X55346D01*
Y131590D01*
X55559D01*
Y127472D01*
X56613D01*
Y125756D01*
X55193D01*
Y120244D01*
X58773D01*
X58970Y120046D01*
X59009Y119854D01*
X59335Y119366D01*
X63219Y115482D01*
X63028Y115020D01*
X60031D01*
Y114171D01*
X59616Y113893D01*
X59500Y113941D01*
Y112000D01*
Y110059D01*
X59616Y110107D01*
X60031Y109829D01*
Y108886D01*
X60244D01*
Y108174D01*
X59744Y107840D01*
X59500Y107941D01*
Y106000D01*
X59000D01*
Y105500D01*
X57059D01*
X57318Y104876D01*
X57876Y104318D01*
X58541Y104042D01*
X58760Y103554D01*
X52078Y96871D01*
X51795Y96448D01*
X51695Y95949D01*
Y64087D01*
X51234Y63895D01*
X42775Y72354D01*
X42925Y72911D01*
X43424Y73118D01*
X43982Y73676D01*
X44241Y74300D01*
X42300D01*
Y75300D01*
X44241D01*
X43982Y75924D01*
X43424Y76482D01*
X42695Y76784D01*
X42566D01*
X42375Y77246D01*
X47064Y81936D01*
X47391Y82424D01*
X47505Y83000D01*
Y172004D01*
X47772Y172648D01*
Y173352D01*
X47502Y174004D01*
X47004Y174502D01*
X46352Y174772D01*
X45648D01*
X44996Y174502D01*
X44498Y174004D01*
X44228Y173352D01*
Y172648D01*
X44495Y172004D01*
Y83623D01*
X37376Y76505D01*
X34363D01*
Y78063D01*
X34251Y78911D01*
X33924Y79701D01*
X33403Y80379D01*
X32725Y80900D01*
X31934Y81227D01*
X31087Y81339D01*
X5702D01*
Y85456D01*
X31087D01*
X31934Y85568D01*
X32725Y85895D01*
X33403Y86416D01*
X33924Y87094D01*
X34251Y87884D01*
X34363Y88732D01*
Y93653D01*
X34251Y94501D01*
X33924Y95291D01*
X33403Y95970D01*
X32725Y96491D01*
X31934Y96818D01*
X31087Y96929D01*
X5702D01*
Y101070D01*
X31087D01*
X31934Y101182D01*
X32725Y101509D01*
X33403Y102030D01*
X33924Y102708D01*
X34251Y103498D01*
X34363Y104346D01*
Y109268D01*
X34251Y110116D01*
X33924Y110906D01*
X33403Y111584D01*
X32725Y112105D01*
X31934Y112432D01*
X31087Y112544D01*
X5702D01*
Y116661D01*
X31087D01*
X31934Y116772D01*
X32725Y117100D01*
X33403Y117620D01*
X33924Y118299D01*
X34251Y119089D01*
X34363Y119937D01*
Y124858D01*
X34251Y125706D01*
X33924Y126496D01*
X33403Y127175D01*
X32725Y127695D01*
X31934Y128023D01*
X31087Y128134D01*
X5702D01*
Y132251D01*
X31087D01*
X31934Y132363D01*
X32725Y132690D01*
X33403Y133211D01*
X33924Y133889D01*
X34251Y134679D01*
X34363Y135527D01*
Y140449D01*
X34251Y141297D01*
X33924Y142087D01*
X33403Y142765D01*
X32725Y143286D01*
X31934Y143613D01*
X31087Y143725D01*
X5702D01*
Y147842D01*
X31087D01*
X31934Y147953D01*
X32725Y148281D01*
X33403Y148801D01*
X33924Y149480D01*
X34251Y150270D01*
X34363Y151118D01*
Y156039D01*
X34251Y156887D01*
X33924Y157677D01*
X33403Y158356D01*
X32725Y158876D01*
X31934Y159204D01*
X31087Y159315D01*
X5702D01*
Y163432D01*
X31087D01*
X31934Y163544D01*
X32725Y163871D01*
X33403Y164392D01*
X33924Y165070D01*
X34251Y165861D01*
X34363Y166709D01*
Y171630D01*
X34251Y172478D01*
X33924Y173268D01*
X33403Y173946D01*
X32725Y174467D01*
X32599Y174519D01*
X32492Y175007D01*
X32587Y175111D01*
X32687Y175274D01*
X32789Y175435D01*
X33088Y176210D01*
X33120Y176399D01*
X33156Y176586D01*
X33148Y177417D01*
X33109Y177604D01*
X33073Y177791D01*
X32760Y178560D01*
X32685Y178674D01*
X32668Y178769D01*
X32800Y179238D01*
X32851Y179291D01*
X33555Y179831D01*
X34109Y180554D01*
X34458Y181396D01*
X34577Y182299D01*
Y184260D01*
X17799D01*
Y184760D01*
X17299D01*
Y190711D01*
X5702D01*
X5702Y196948D01*
X386362Y196948D01*
D02*
G37*
G36*
X226559Y165995D02*
X226394Y165926D01*
X225609Y165324D01*
X225007Y164540D01*
X224629Y163626D01*
X224500Y162645D01*
Y160980D01*
X228288D01*
Y160480D01*
X228788D01*
Y154592D01*
X229269Y154656D01*
X230182Y155034D01*
X230857Y155552D01*
X231455Y155558D01*
X231495Y155497D01*
X236562Y150431D01*
X237050Y150104D01*
X237626Y149990D01*
X247319D01*
X250464Y146844D01*
X250348Y146563D01*
X250226Y145638D01*
Y141307D01*
X250348Y140382D01*
X250705Y139520D01*
X251273Y138780D01*
X252013Y138212D01*
X252875Y137855D01*
X253800Y137733D01*
X254725Y137855D01*
X255007Y137971D01*
X260912Y132066D01*
X260721Y131604D01*
X257128D01*
X248631Y140100D01*
X248748Y140382D01*
X248870Y141307D01*
Y145638D01*
X248748Y146563D01*
X248391Y147425D01*
X247823Y148165D01*
X247083Y148733D01*
X246221Y149090D01*
X245296Y149212D01*
X244371Y149090D01*
X243509Y148733D01*
X242769Y148165D01*
X242201Y147425D01*
X241844Y146563D01*
X241722Y145638D01*
Y141307D01*
X241844Y140382D01*
X242201Y139520D01*
X242769Y138780D01*
X243509Y138212D01*
X244371Y137855D01*
X245296Y137733D01*
X246221Y137855D01*
X246502Y137971D01*
X254574Y129900D01*
X254382Y129438D01*
X250789D01*
X240127Y140100D01*
X240244Y140382D01*
X240366Y141307D01*
Y145638D01*
X240244Y146563D01*
X239887Y147425D01*
X239319Y148165D01*
X238579Y148733D01*
X237717Y149090D01*
X236792Y149212D01*
X235867Y149090D01*
X235005Y148733D01*
X234265Y148165D01*
X233697Y147425D01*
X233340Y146563D01*
X233218Y145638D01*
Y141307D01*
X233340Y140382D01*
X233697Y139520D01*
X234265Y138780D01*
X235005Y138212D01*
X235867Y137855D01*
X236792Y137733D01*
X237717Y137855D01*
X237999Y137971D01*
X248235Y127735D01*
X248044Y127273D01*
X244688D01*
X231693Y140268D01*
X231740Y140382D01*
X231862Y141307D01*
Y145638D01*
X231740Y146563D01*
X231383Y147425D01*
X230815Y148165D01*
X230075Y148733D01*
X229213Y149090D01*
X228288Y149212D01*
X227363Y149090D01*
X226501Y148733D01*
X225761Y148165D01*
X225193Y147425D01*
X224836Y146563D01*
X224714Y145638D01*
Y141307D01*
X224836Y140382D01*
X225193Y139520D01*
X225761Y138780D01*
X226501Y138212D01*
X227363Y137855D01*
X228288Y137733D01*
X229213Y137855D01*
X229662Y138041D01*
X239968Y127735D01*
X239777Y127273D01*
X235947D01*
X223119Y140100D01*
X223236Y140382D01*
X223358Y141307D01*
Y145638D01*
X223236Y146563D01*
X222879Y147425D01*
X222311Y148165D01*
X221571Y148733D01*
X220709Y149090D01*
X219784Y149212D01*
X218859Y149090D01*
X217997Y148733D01*
X217257Y148165D01*
X216689Y147425D01*
X216332Y146563D01*
X216210Y145638D01*
Y141307D01*
X216332Y140382D01*
X216689Y139520D01*
X217257Y138780D01*
X217997Y138212D01*
X218859Y137855D01*
X219784Y137733D01*
X220709Y137855D01*
X220991Y137971D01*
X231223Y127739D01*
X231024Y127318D01*
X230982Y127273D01*
X227443D01*
X214616Y140100D01*
X214732Y140382D01*
X214854Y141307D01*
Y145638D01*
X214732Y146563D01*
X214375Y147425D01*
X213807Y148165D01*
X213067Y148733D01*
X212205Y149090D01*
X211280Y149212D01*
X210355Y149090D01*
X209493Y148733D01*
X208885Y148266D01*
X208802Y148249D01*
X208431Y148293D01*
X208270Y148356D01*
X208073Y148651D01*
X204281Y152442D01*
Y155103D01*
X204563Y155220D01*
X205303Y155788D01*
X205871Y156528D01*
X206228Y157390D01*
X206350Y158315D01*
Y162645D01*
X206228Y163570D01*
X205871Y164432D01*
X205303Y165173D01*
X204563Y165741D01*
X203950Y165995D01*
X204049Y166495D01*
X209452D01*
X209551Y165995D01*
X209386Y165926D01*
X208601Y165324D01*
X207999Y164540D01*
X207621Y163626D01*
X207492Y162645D01*
Y160980D01*
X215069D01*
Y162645D01*
X214939Y163626D01*
X214561Y164540D01*
X213959Y165324D01*
X213174Y165926D01*
X213009Y165995D01*
X213109Y166495D01*
X217956D01*
X218055Y165995D01*
X217890Y165926D01*
X217105Y165324D01*
X216503Y164540D01*
X216125Y163626D01*
X215996Y162645D01*
Y160980D01*
X223572D01*
Y162645D01*
X223443Y163626D01*
X223065Y164540D01*
X222463Y165324D01*
X221678Y165926D01*
X221513Y165995D01*
X221613Y166495D01*
X226460D01*
X226559Y165995D01*
D02*
G37*
G36*
X317545Y175003D02*
Y157602D01*
X317058Y157485D01*
X317010Y157580D01*
X316007Y158961D01*
X314800Y160168D01*
X313420Y161171D01*
X311899Y161946D01*
X310276Y162473D01*
X308590Y162740D01*
X308237D01*
Y151898D01*
Y141055D01*
X308590D01*
X310276Y141322D01*
X311899Y141849D01*
X313420Y142624D01*
X314800Y143627D01*
X316007Y144834D01*
X317010Y146215D01*
X317058Y146309D01*
X317545Y146193D01*
Y132595D01*
X315959Y131009D01*
X315567Y130423D01*
X315430Y129732D01*
Y110863D01*
X315188Y110775D01*
X314930Y110775D01*
X314395Y111701D01*
X313576Y112521D01*
X312572Y113100D01*
X311453Y113400D01*
X311374D01*
Y109000D01*
Y104600D01*
X311453D01*
X312572Y104900D01*
X313576Y105479D01*
X314395Y106298D01*
X314930Y107225D01*
X315188Y107224D01*
X315430Y107136D01*
Y100863D01*
X315188Y100775D01*
X314930Y100775D01*
X314395Y101701D01*
X313576Y102521D01*
X312572Y103100D01*
X311453Y103400D01*
X311374D01*
Y99000D01*
Y94590D01*
X311498Y94549D01*
X311824Y94181D01*
Y74085D01*
X311753Y73729D01*
Y54858D01*
X306669D01*
Y48165D01*
X315331D01*
Y52912D01*
X315366Y53086D01*
Y73444D01*
X315436Y73800D01*
Y93694D01*
X317724Y95981D01*
X318186Y95790D01*
Y76733D01*
X318320Y76060D01*
Y73708D01*
X317469D01*
Y68590D01*
X322783D01*
Y73708D01*
X321932D01*
Y75482D01*
X322394Y75674D01*
X326816Y71252D01*
Y68590D01*
X332131D01*
Y73708D01*
X329468D01*
X324554Y78623D01*
Y85042D01*
X324970Y85320D01*
X325151Y85245D01*
X325791D01*
X326010Y85061D01*
X326193Y84843D01*
Y84203D01*
X326463Y83552D01*
X326961Y83054D01*
X327612Y82784D01*
X328087D01*
X347495Y63376D01*
Y20650D01*
X347609Y20074D01*
X347936Y19585D01*
X355345Y12176D01*
X355834Y11849D01*
X356410Y11735D01*
X357795D01*
Y10779D01*
X357906Y9931D01*
X358234Y9141D01*
X358754Y8463D01*
X359433Y7942D01*
X360223Y7615D01*
X361071Y7503D01*
X386756D01*
Y1020D01*
X5802Y1020D01*
X5802Y7289D01*
X17299D01*
Y13240D01*
Y19191D01*
X5702D01*
Y23094D01*
X31087D01*
X31934Y23205D01*
X32725Y23533D01*
X33403Y24053D01*
X33924Y24732D01*
X34251Y25522D01*
X34363Y26370D01*
Y31291D01*
X34251Y32139D01*
X33924Y32929D01*
X33403Y33608D01*
X32725Y34128D01*
X32519Y34214D01*
X32407Y34701D01*
X32508Y34814D01*
X32605Y34978D01*
X32704Y35140D01*
X32990Y35916D01*
X33020Y36104D01*
X33053Y36291D01*
X33034Y37118D01*
X32993Y37304D01*
X32955Y37490D01*
X32635Y38253D01*
X32529Y38411D01*
X32482Y38482D01*
X32544Y39049D01*
X32725Y39123D01*
X33403Y39644D01*
X33924Y40322D01*
X34251Y41113D01*
X34363Y41960D01*
Y46882D01*
X34251Y47730D01*
X33924Y48520D01*
X33403Y49198D01*
X32725Y49719D01*
X31934Y50046D01*
X31087Y50158D01*
X5702D01*
Y54275D01*
X31087D01*
X31934Y54387D01*
X32725Y54714D01*
X33403Y55234D01*
X33924Y55913D01*
X34251Y56703D01*
X34363Y57551D01*
Y62472D01*
X34251Y63320D01*
X33924Y64110D01*
X33403Y64789D01*
X32725Y65309D01*
X31934Y65637D01*
X31087Y65748D01*
X5702D01*
Y69866D01*
X31087D01*
X31934Y69977D01*
X32725Y70304D01*
X33403Y70825D01*
X33924Y71504D01*
X34251Y72294D01*
X34363Y73142D01*
Y73495D01*
X37376D01*
X58161Y52711D01*
X58649Y52384D01*
X59225Y52270D01*
X64180D01*
X68587Y47862D01*
X68326Y47436D01*
X68212Y47473D01*
X66527Y47740D01*
X66173D01*
Y37398D01*
X76516D01*
Y37751D01*
X76249Y39436D01*
X76212Y39550D01*
X76638Y39811D01*
X86207Y30242D01*
X86695Y29916D01*
X87271Y29802D01*
X94020D01*
X94105Y29483D01*
X94727Y28406D01*
X95607Y27526D01*
X96684Y26904D01*
X97886Y26583D01*
X99130D01*
X100331Y26904D01*
X101409Y27526D01*
X102161Y28279D01*
X102190Y28295D01*
X102629Y28292D01*
X102772Y28245D01*
X102936Y28000D01*
X110437Y20498D01*
X110926Y20172D01*
X111502Y20057D01*
X171909D01*
X172485Y20172D01*
X172974Y20498D01*
X176201Y23726D01*
X176845Y23993D01*
X177343Y24491D01*
X177613Y25142D01*
Y25847D01*
X177343Y26498D01*
X176845Y26996D01*
X176891Y27518D01*
X177073Y27701D01*
X177343Y28352D01*
Y29057D01*
X177073Y29708D01*
X176575Y30207D01*
X176531Y30225D01*
Y30766D01*
X176796Y30875D01*
X177294Y31374D01*
X177564Y32025D01*
Y32730D01*
X177294Y33381D01*
X176796Y33879D01*
X176144Y34149D01*
X175678D01*
X175471Y34649D01*
X175711Y34889D01*
X175980Y35540D01*
Y36245D01*
X175711Y36896D01*
X175212Y37394D01*
X174561Y37664D01*
X173856D01*
X173486Y37511D01*
X172161D01*
X171817Y37855D01*
X171899Y38480D01*
X172295Y38708D01*
X173174Y39587D01*
X173796Y40664D01*
X174118Y41866D01*
Y43110D01*
X173796Y44312D01*
X173174Y45389D01*
X172295Y46268D01*
X171217Y46891D01*
X170016Y47212D01*
X168772D01*
X167570Y46891D01*
X167242Y46701D01*
X162075Y51867D01*
X162267Y52329D01*
X215542D01*
X228231Y39640D01*
X228719Y39314D01*
X229295Y39199D01*
X239696D01*
X240272Y39314D01*
X240760Y39640D01*
X257615Y56495D01*
X269258D01*
X277550Y48203D01*
X278038Y47877D01*
X278614Y47762D01*
X286635D01*
X286822Y47064D01*
X287574Y45762D01*
X288636Y44699D01*
X289839Y44005D01*
X289764Y43525D01*
X289756Y43505D01*
X270505D01*
X267572Y46438D01*
X267934Y47064D01*
X268323Y48516D01*
Y50019D01*
X267934Y51471D01*
X267182Y52773D01*
X266119Y53836D01*
X264818Y54587D01*
X263366Y54976D01*
X261863D01*
X260411Y54587D01*
X259109Y53836D01*
X258046Y52773D01*
X257295Y51471D01*
X256906Y50019D01*
Y48516D01*
X257295Y47064D01*
X258046Y45762D01*
X259109Y44699D01*
X260411Y43948D01*
X261863Y43559D01*
X263366D01*
X264818Y43948D01*
X265444Y44309D01*
X268817Y40936D01*
X269306Y40609D01*
X269882Y40495D01*
X295000D01*
X295576Y40609D01*
X296064Y40936D01*
X301064Y45936D01*
X301391Y46424D01*
X301505Y47000D01*
Y94834D01*
X302490Y95098D01*
X303445Y95649D01*
X304225Y96429D01*
X304776Y97383D01*
X305061Y98448D01*
Y99551D01*
X304776Y100616D01*
X304225Y101571D01*
X303445Y102350D01*
X302490Y102902D01*
X301425Y103187D01*
X300323D01*
X299258Y102902D01*
X299158Y102844D01*
X297256Y104747D01*
Y105688D01*
X297756Y105895D01*
X298172Y105479D01*
X299176Y104900D01*
X300295Y104600D01*
X300374D01*
Y109000D01*
Y113400D01*
X300295D01*
X299176Y113100D01*
X298172Y112521D01*
X297544Y111892D01*
X296980Y111901D01*
X296912Y111938D01*
X296815Y112084D01*
X275571Y133328D01*
X275082Y133654D01*
X274506Y133769D01*
X263467D01*
X257135Y140100D01*
X257252Y140382D01*
X257374Y141307D01*
Y145638D01*
X257252Y146563D01*
X256895Y147425D01*
X256327Y148165D01*
X255587Y148733D01*
X254725Y149090D01*
X253800Y149212D01*
X252875Y149090D01*
X252593Y148973D01*
X249007Y152560D01*
X248518Y152886D01*
X247942Y153000D01*
X238250D01*
X237177Y154073D01*
X237356Y154601D01*
X237772Y154656D01*
X238686Y155034D01*
X239471Y155636D01*
X240073Y156421D01*
X240451Y157334D01*
X240580Y158315D01*
Y159980D01*
X236792D01*
Y160480D01*
X236292D01*
Y166368D01*
X235811Y166305D01*
X234898Y165926D01*
X234231Y165415D01*
X233685Y165413D01*
X233587Y165460D01*
X229983Y169064D01*
X229495Y169391D01*
X228919Y169505D01*
X163000D01*
X162424Y169391D01*
X161936Y169064D01*
X153936Y161064D01*
X153609Y160576D01*
X153495Y160000D01*
Y116657D01*
X152441D01*
Y111343D01*
X153433D01*
Y94895D01*
X153022Y94280D01*
X152869Y93512D01*
Y90166D01*
X153022Y89398D01*
X153457Y88747D01*
X154108Y88311D01*
X154876Y88159D01*
X155644Y88311D01*
X156295Y88747D01*
X156730Y89398D01*
X156883Y90166D01*
Y93512D01*
X156730Y94280D01*
X156443Y94710D01*
Y111343D01*
X157559D01*
Y116657D01*
X156505D01*
Y159377D01*
X163623Y166495D01*
X167736D01*
X167835Y166019D01*
X166973Y165662D01*
X166233Y165094D01*
X165665Y164354D01*
X165308Y163492D01*
X165187Y162567D01*
Y158236D01*
X165308Y157311D01*
X165665Y156449D01*
X166233Y155709D01*
X166973Y155141D01*
X167255Y155024D01*
Y151623D01*
X167370Y151047D01*
X167696Y150559D01*
X168565Y149690D01*
X168385Y149162D01*
X167835Y149090D01*
X166973Y148733D01*
X166233Y148165D01*
X165665Y147425D01*
X165308Y146563D01*
X165187Y145638D01*
Y141307D01*
X165308Y140382D01*
X165665Y139520D01*
X166233Y138780D01*
X166973Y138212D01*
X167255Y138095D01*
Y134989D01*
X167370Y134413D01*
X167696Y133924D01*
X182352Y119268D01*
Y116016D01*
X182466Y115440D01*
X182793Y114952D01*
X196687Y101058D01*
Y94812D01*
X199369D01*
Y86876D01*
X199483Y86300D01*
X199810Y85812D01*
X214686Y70936D01*
X215174Y70609D01*
X215315Y70581D01*
X215399Y70498D01*
X216050Y70228D01*
X216755D01*
X217406Y70498D01*
X217904Y70996D01*
X218174Y71648D01*
Y72352D01*
X217904Y73004D01*
X217478Y73430D01*
X217479Y73793D01*
X217529Y73992D01*
X217861Y74129D01*
X218359Y74628D01*
X218629Y75279D01*
Y75984D01*
X218499Y76296D01*
X218845Y76768D01*
X219272D01*
X219924Y77037D01*
X220422Y77536D01*
X220692Y78187D01*
Y78892D01*
X220425Y79535D01*
Y85571D01*
X220925Y85778D01*
X220996Y85707D01*
X221648Y85437D01*
X222352D01*
X223004Y85707D01*
X223502Y86205D01*
X223768Y86848D01*
X226815Y89895D01*
X227141Y90383D01*
X227256Y90959D01*
Y95989D01*
X227756Y96196D01*
X228303Y95649D01*
X228608Y95473D01*
Y85861D01*
X228498Y85752D01*
X228228Y85100D01*
Y84396D01*
X228498Y83745D01*
X228996Y83246D01*
X229648Y82976D01*
X230352D01*
X231004Y83246D01*
X231502Y83745D01*
X231772Y84396D01*
Y85100D01*
X231618Y85471D01*
Y86021D01*
X231953Y86154D01*
X232118Y86170D01*
X232581Y85707D01*
X233233Y85437D01*
X233937D01*
X234589Y85707D01*
X235087Y86205D01*
X235353Y86848D01*
X236815Y88310D01*
X237141Y88798D01*
X237256Y89374D01*
Y95989D01*
X237756Y96196D01*
X238303Y95649D01*
X239258Y95098D01*
X240323Y94812D01*
X241425D01*
X242490Y95098D01*
X243445Y95649D01*
X244225Y96429D01*
X244776Y97383D01*
X245061Y98448D01*
Y99551D01*
X244776Y100616D01*
X244225Y101571D01*
X243445Y102350D01*
X242490Y102902D01*
X241425Y103187D01*
X240323D01*
X239258Y102902D01*
X239158Y102844D01*
X237256Y104747D01*
Y105989D01*
X237756Y106196D01*
X238303Y105649D01*
X239258Y105098D01*
X240323Y104812D01*
X241425D01*
X242490Y105098D01*
X243445Y105649D01*
X243745Y105949D01*
X244245Y105742D01*
Y104123D01*
X244360Y103547D01*
X244686Y103059D01*
X247029Y100715D01*
X246972Y100616D01*
X246687Y99551D01*
Y98448D01*
X246972Y97383D01*
X247523Y96429D01*
X248303Y95649D01*
X249258Y95098D01*
X250323Y94812D01*
X251425D01*
X252490Y95098D01*
X253445Y95649D01*
X254225Y96429D01*
X254776Y97383D01*
X255061Y98448D01*
Y99551D01*
X254776Y100616D01*
X254225Y101571D01*
X253445Y102350D01*
X252490Y102902D01*
X251425Y103187D01*
X250323D01*
X249258Y102902D01*
X249158Y102844D01*
X247256Y104747D01*
Y105688D01*
X247756Y105895D01*
X248172Y105479D01*
X249176Y104900D01*
X250295Y104600D01*
X250374D01*
Y109000D01*
X251374D01*
Y104600D01*
X251453D01*
X252572Y104900D01*
X253576Y105479D01*
X253783Y105686D01*
X254245Y105495D01*
Y104123D01*
X254360Y103547D01*
X254686Y103059D01*
X257029Y100715D01*
X256972Y100616D01*
X256687Y99551D01*
Y98448D01*
X256972Y97383D01*
X257029Y97284D01*
X241865Y82119D01*
X241538Y81631D01*
X241424Y81055D01*
Y64617D01*
X240726Y64430D01*
X239424Y63678D01*
X238361Y62615D01*
X237911Y61836D01*
X173334D01*
X173143Y62298D01*
X175907Y65062D01*
X176190Y65485D01*
X176289Y65984D01*
Y66642D01*
X178370D01*
Y70185D01*
X178370D01*
Y70579D01*
X178370D01*
Y74122D01*
X178258D01*
Y77047D01*
X178158Y77546D01*
X177875Y77969D01*
X174923Y80923D01*
X174499Y81205D01*
X174000Y81305D01*
X163730D01*
X163523Y81805D01*
X163647Y81929D01*
X163914Y82572D01*
X165941Y84599D01*
X166267Y85087D01*
X166382Y85663D01*
Y88875D01*
X166730Y89398D01*
X166883Y90166D01*
Y93512D01*
X166730Y94280D01*
X166295Y94931D01*
X165644Y95366D01*
X164876Y95519D01*
X164108Y95366D01*
X163457Y94931D01*
X163022Y94280D01*
X162869Y93512D01*
Y90166D01*
X163022Y89398D01*
X163371Y88875D01*
Y86287D01*
X161785Y84701D01*
X161597Y84623D01*
X161181Y84900D01*
Y87265D01*
X161082Y87764D01*
X160932Y87987D01*
Y88504D01*
X161295Y88747D01*
X161731Y89398D01*
X161883Y90166D01*
Y93512D01*
X161731Y94280D01*
X161295Y94931D01*
X161133Y95040D01*
Y96374D01*
X161399Y97017D01*
Y97722D01*
X161130Y98373D01*
X160631Y98872D01*
X159980Y99141D01*
X159275D01*
X158624Y98872D01*
X158126Y98373D01*
X157856Y97722D01*
Y97017D01*
X158123Y96374D01*
Y94456D01*
X158126Y94437D01*
X158022Y94280D01*
X157869Y93512D01*
Y90166D01*
X158022Y89398D01*
X158323Y88947D01*
Y87513D01*
X158423Y87014D01*
X158572Y86791D01*
Y82000D01*
X158671Y81501D01*
X158954Y81077D01*
X160001Y80030D01*
X159810Y79568D01*
X156061D01*
X151181Y84448D01*
Y88670D01*
X151295Y88747D01*
X151731Y89398D01*
X151883Y90166D01*
Y93512D01*
X151731Y94280D01*
X151382Y94802D01*
Y105000D01*
X151267Y105576D01*
X150941Y106064D01*
X146162Y110843D01*
X146370Y111343D01*
X151260D01*
Y116657D01*
X146142D01*
Y115442D01*
X110003D01*
X109735Y115942D01*
X109970Y116294D01*
X110115Y117024D01*
X110029Y117458D01*
X110490Y117704D01*
X110876Y117318D01*
X111500Y117059D01*
Y118500D01*
X109940D01*
X109595Y118315D01*
X109557Y118372D01*
X108938Y118785D01*
X108209Y118930D01*
X108041D01*
Y126161D01*
X108541Y126260D01*
X108700Y125876D01*
X109258Y125318D01*
X109882Y125059D01*
Y127000D01*
Y128941D01*
X109258Y128682D01*
X108700Y128124D01*
X108541Y127740D01*
X108041Y127839D01*
Y140366D01*
X107926Y140942D01*
X107600Y141430D01*
X104559Y144471D01*
Y147658D01*
X105043Y147695D01*
X107799D01*
X107996Y147498D01*
X108648Y147228D01*
X109352D01*
X110004Y147498D01*
X110502Y147996D01*
X110772Y148648D01*
Y149352D01*
X110502Y150004D01*
X110004Y150502D01*
X109352Y150772D01*
X108648D01*
X107996Y150502D01*
X107799Y150305D01*
X100549D01*
X100049Y150205D01*
X99626Y149923D01*
X98007Y148303D01*
X97507Y148494D01*
Y154004D01*
X98697Y155194D01*
X98795D01*
X99486Y155331D01*
X100072Y155723D01*
X123787Y179438D01*
X313110D01*
X317545Y175003D01*
D02*
G37*
G36*
X96215Y159230D02*
X96407Y159145D01*
X96447Y159048D01*
X96573Y158922D01*
X96646Y158813D01*
X96666Y158689D01*
X96635Y158241D01*
X94424Y156029D01*
X94032Y155443D01*
X93894Y154752D01*
Y147658D01*
X93142D01*
Y142342D01*
X97490D01*
Y137003D01*
X97590Y136504D01*
X97755Y136256D01*
X97527Y135756D01*
X94114D01*
Y135968D01*
X91547D01*
Y133000D01*
X90547D01*
Y135968D01*
X89015D01*
Y152461D01*
X95801Y159246D01*
X95883Y159266D01*
X96215Y159230D01*
D02*
G37*
G36*
X71959Y124811D02*
Y118930D01*
X71791D01*
X71062Y118785D01*
X70443Y118372D01*
X70405Y118315D01*
X70060Y118500D01*
X68000D01*
Y119000D01*
X67500D01*
Y120941D01*
X67435Y120914D01*
X67020Y121192D01*
Y122500D01*
X63953D01*
Y123000D01*
X63453D01*
Y125969D01*
X60886D01*
Y125756D01*
X59623D01*
Y127472D01*
X60446D01*
X60858Y127259D01*
X60858Y127259D01*
X60858Y127259D01*
X63130D01*
Y129834D01*
X64130D01*
Y127259D01*
X66402D01*
Y129715D01*
X66864Y129906D01*
X71959Y124811D01*
D02*
G37*
G36*
X92075Y118838D02*
X92387Y118900D01*
X92939Y119269D01*
X93376Y119514D01*
X93995Y119101D01*
X94724Y118956D01*
X95454Y119101D01*
X95970Y119446D01*
X96299Y119486D01*
X96628Y119446D01*
X97144Y119101D01*
X97874Y118956D01*
X98604Y119101D01*
X99120Y119446D01*
X99449Y119486D01*
X99778Y119446D01*
X100294Y119101D01*
X101024Y118956D01*
X101753Y119101D01*
X102372Y119514D01*
X102785Y120133D01*
X102930Y120862D01*
Y121030D01*
X103535D01*
X104112Y121145D01*
X104237Y121228D01*
X104352D01*
X104530Y121302D01*
X105030Y120968D01*
Y118930D01*
X104862D01*
X104132Y118785D01*
X103514Y118372D01*
X103101Y117753D01*
X102955Y117024D01*
X103101Y116294D01*
X103445Y115778D01*
X103486Y115449D01*
X103445Y115120D01*
X103101Y114604D01*
X102955Y113874D01*
X103101Y113144D01*
X103445Y112628D01*
X103486Y112299D01*
X103445Y111970D01*
X103101Y111454D01*
X102955Y110724D01*
X103101Y109995D01*
X103445Y109479D01*
X103486Y109150D01*
X103445Y108821D01*
X103101Y108305D01*
X102955Y107575D01*
X103101Y106845D01*
X103445Y106329D01*
X103486Y106000D01*
X103445Y105671D01*
X103101Y105155D01*
X102955Y104425D01*
X103101Y103695D01*
X103445Y103179D01*
X103486Y102850D01*
X103445Y102521D01*
X103101Y102005D01*
X102955Y101276D01*
X103101Y100546D01*
X103445Y100030D01*
X103486Y99701D01*
X103445Y99372D01*
X103101Y98856D01*
X102955Y98126D01*
X103101Y97396D01*
X103445Y96880D01*
X103486Y96551D01*
X103445Y96222D01*
X103101Y95706D01*
X102955Y94976D01*
X102976Y94875D01*
X102936Y94835D01*
X102609Y94346D01*
X102495Y93770D01*
Y93005D01*
X101995Y92738D01*
X101753Y92899D01*
X101024Y93045D01*
X100294Y92899D01*
X99778Y92554D01*
X99449Y92514D01*
X99120Y92554D01*
X98604Y92899D01*
X97874Y93045D01*
X97144Y92899D01*
X96628Y92554D01*
X96299Y92514D01*
X95970Y92554D01*
X95454Y92899D01*
X94724Y93045D01*
X93995Y92899D01*
X93479Y92554D01*
X93150Y92514D01*
X92821Y92554D01*
X92304Y92899D01*
X91575Y93045D01*
X90896Y92909D01*
X90755Y92938D01*
X90396Y93130D01*
Y98192D01*
X90858Y98383D01*
X90876Y98365D01*
X91500Y98107D01*
Y100048D01*
Y101988D01*
X90876Y101730D01*
X90858Y101712D01*
X90396Y101903D01*
Y105719D01*
X90858Y105911D01*
X90876Y105893D01*
X91500Y105634D01*
Y107575D01*
X92000D01*
Y108075D01*
X93941D01*
X93682Y108699D01*
X93124Y109257D01*
X92395Y109559D01*
X91934D01*
X91727Y110059D01*
X94625Y112957D01*
X96477D01*
X97120Y112691D01*
X97825D01*
X98476Y112961D01*
X98974Y113459D01*
X99244Y114110D01*
Y114815D01*
X98974Y115466D01*
X98476Y115964D01*
X97825Y116234D01*
X97120D01*
X96477Y115968D01*
X94002D01*
X93426Y115853D01*
X92937Y115527D01*
X88506Y111096D01*
X88006Y111303D01*
Y111663D01*
X87837Y112073D01*
X87737Y112315D01*
X88083Y112675D01*
X88333Y112778D01*
X88891Y113337D01*
X89149Y113961D01*
X85268D01*
X85477Y113456D01*
X85380Y112875D01*
X85231Y112813D01*
X84733Y112315D01*
X84466Y111671D01*
X84432Y111637D01*
X83932Y111845D01*
Y118980D01*
X84373Y119216D01*
X84546Y119101D01*
X85276Y118956D01*
X86005Y119101D01*
X86521Y119446D01*
X86850Y119486D01*
X87179Y119446D01*
X87695Y119101D01*
X88425Y118956D01*
X89155Y119101D01*
X89773Y119514D01*
X90211Y119269D01*
X90762Y118900D01*
X91075Y118838D01*
Y122535D01*
X92075D01*
Y118838D01*
D02*
G37*
G36*
X148371Y104376D02*
Y94802D01*
X148022Y94280D01*
X147869Y93512D01*
Y90166D01*
X148022Y89398D01*
X148457Y88747D01*
X148572Y88670D01*
Y83908D01*
X148671Y83408D01*
X148954Y82985D01*
X154046Y77893D01*
X153968Y77502D01*
X153469Y77004D01*
X153200Y76352D01*
Y75648D01*
X153371Y75234D01*
Y73346D01*
X153022Y72824D01*
X152869Y72055D01*
Y68709D01*
X153022Y67941D01*
X153457Y67290D01*
X154108Y66855D01*
X154876Y66702D01*
X155644Y66855D01*
X156295Y67290D01*
X156730Y67941D01*
X156883Y68709D01*
Y72055D01*
X156730Y72824D01*
X156381Y73346D01*
Y74695D01*
X159762D01*
X160029Y74195D01*
X159932Y74051D01*
X159876Y74063D01*
X159108Y73910D01*
X158457Y73475D01*
X158022Y72824D01*
X157869Y72055D01*
Y68709D01*
X158022Y67941D01*
X158371Y67419D01*
Y66969D01*
X158382Y66914D01*
Y65723D01*
X158228Y65352D01*
Y64648D01*
X158308Y64457D01*
X158030Y64041D01*
X152910D01*
X150580Y66371D01*
X150739Y66918D01*
X151295Y67290D01*
X151731Y67941D01*
X151883Y68709D01*
Y72055D01*
X151731Y72824D01*
X151382Y73346D01*
Y75005D01*
X151648Y75648D01*
Y76352D01*
X151378Y77004D01*
X150880Y77502D01*
X150229Y77772D01*
X149524D01*
X149141Y77613D01*
X149018Y77636D01*
X148608Y77886D01*
X148605Y77891D01*
X148542Y78204D01*
X148259Y78628D01*
X139080Y87807D01*
X139326Y88268D01*
X139876Y88159D01*
X140644Y88311D01*
X141295Y88747D01*
X141730Y89398D01*
X141883Y90166D01*
Y93512D01*
X141730Y94280D01*
X141443Y94710D01*
Y95938D01*
X141502Y95996D01*
X141772Y96648D01*
Y97352D01*
X141502Y98004D01*
X141004Y98502D01*
X140352Y98772D01*
X139648D01*
X138996Y98502D01*
X138498Y98004D01*
X138228Y97352D01*
Y96648D01*
X138433Y96154D01*
Y94895D01*
X138022Y94280D01*
X137869Y93512D01*
Y90166D01*
X137979Y89615D01*
X137518Y89369D01*
X136856Y90030D01*
X136883Y90166D01*
Y93512D01*
X136731Y94280D01*
X136295Y94931D01*
X135644Y95366D01*
X134876Y95519D01*
X134108Y95366D01*
X133457Y94931D01*
X133022Y94280D01*
X132896Y93645D01*
X131839D01*
X131148Y93508D01*
X130562Y93116D01*
X126723Y89277D01*
X126331Y88691D01*
X126194Y88000D01*
Y86854D01*
X125244D01*
Y85772D01*
X124648D01*
X123996Y85502D01*
X123498Y85004D01*
X123228Y84352D01*
Y83648D01*
X123498Y82996D01*
X123996Y82498D01*
X124648Y82228D01*
X125244D01*
Y81161D01*
X125031D01*
Y78594D01*
X128000D01*
Y78094D01*
X128500D01*
Y75028D01*
X130968D01*
Y75778D01*
X131376Y76051D01*
Y78000D01*
Y79949D01*
X130968Y80222D01*
Y81161D01*
X130756D01*
Y86854D01*
X130054D01*
X129909Y87354D01*
X130953Y88398D01*
X131377Y88115D01*
X131228Y87757D01*
Y87052D01*
X131498Y86401D01*
X131996Y85903D01*
X132640Y85636D01*
X137133Y81143D01*
X137621Y80817D01*
X138197Y80702D01*
X139169D01*
X143371Y76500D01*
Y73346D01*
X143022Y72824D01*
X142869Y72055D01*
Y68709D01*
X142908Y68513D01*
X142447Y68267D01*
X141883Y68831D01*
Y72055D01*
X141730Y72824D01*
X141382Y73346D01*
Y74005D01*
X141648Y74648D01*
Y75352D01*
X141378Y76004D01*
X140880Y76502D01*
X140229Y76772D01*
X139524D01*
X138873Y76502D01*
X138374Y76004D01*
X138105Y75352D01*
Y74648D01*
X138371Y74005D01*
Y73346D01*
X138022Y72824D01*
X137869Y72055D01*
Y68709D01*
X138022Y67941D01*
X138457Y67290D01*
X139108Y66855D01*
X139724Y66732D01*
X142489Y63967D01*
X142298Y63505D01*
X136321D01*
X135678Y63772D01*
X134973D01*
X134322Y63502D01*
X133823Y63004D01*
X133554Y62352D01*
Y61648D01*
X133823Y60996D01*
X134322Y60498D01*
X134973Y60228D01*
X135678D01*
X136321Y60495D01*
X141336D01*
X141622Y59995D01*
X141446Y59570D01*
Y58866D01*
X141716Y58214D01*
X142215Y57716D01*
X142866Y57446D01*
X143570D01*
X144213Y57713D01*
X145741D01*
X146691Y56763D01*
X146594Y56272D01*
X146406Y56195D01*
X145908Y55696D01*
X145638Y55045D01*
Y54340D01*
X145908Y53689D01*
X145923Y53675D01*
X145716Y53175D01*
X144954D01*
X142734Y55395D01*
X142245Y55721D01*
X141669Y55836D01*
X133293D01*
X118769Y70360D01*
Y87577D01*
X119269Y87677D01*
X119518Y87076D01*
X120076Y86518D01*
X120700Y86259D01*
Y88200D01*
Y90141D01*
X120076Y89882D01*
X119518Y89324D01*
X119269Y88723D01*
X118769Y88823D01*
Y98727D01*
X118655Y99303D01*
X118428Y99642D01*
X118391Y99829D01*
X118064Y100317D01*
X110333Y108049D01*
X109973Y108289D01*
X109970Y108305D01*
X109693Y108719D01*
X109945Y109219D01*
X139506D01*
X139713Y108719D01*
X139318Y108324D01*
X139059Y107700D01*
X142941D01*
X142682Y108324D01*
X142287Y108719D01*
X142494Y109219D01*
X143528D01*
X148371Y104376D01*
D02*
G37*
G36*
X86505Y105634D02*
X86886Y105792D01*
X87386Y105496D01*
Y102808D01*
X86970Y102531D01*
X86833Y102587D01*
Y100647D01*
Y98706D01*
X86970Y98763D01*
X87386Y98485D01*
Y92692D01*
X87179Y92554D01*
X86850Y92514D01*
X86521Y92554D01*
X86005Y92899D01*
X85276Y93045D01*
X84546Y92899D01*
X84030Y92554D01*
X83701Y92514D01*
X83372Y92554D01*
X82856Y92899D01*
X82126Y93045D01*
X81396Y92899D01*
X80982Y92622D01*
X80482Y92874D01*
Y94978D01*
X81409Y95906D01*
X81735Y96394D01*
X81850Y96970D01*
Y101697D01*
X82951Y102798D01*
X83469Y103012D01*
X83968Y103511D01*
X84237Y104162D01*
Y104867D01*
X83968Y105518D01*
X83656Y105830D01*
X83673Y106415D01*
X83798Y106515D01*
X84323Y106451D01*
X84881Y105893D01*
X85505Y105634D01*
Y107575D01*
X86505D01*
Y105634D01*
D02*
G37*
G36*
X291374Y104600D02*
X291453D01*
X292572Y104900D01*
X293576Y105479D01*
X293783Y105686D01*
X294245Y105495D01*
Y104123D01*
X294360Y103547D01*
X294686Y103059D01*
X297029Y100715D01*
X296972Y100616D01*
X296687Y99551D01*
Y98448D01*
X296972Y97383D01*
X297523Y96429D01*
X298303Y95649D01*
X298495Y95538D01*
Y47624D01*
X297995Y47124D01*
X297547Y47383D01*
X297850Y48516D01*
Y50019D01*
X297461Y51471D01*
X296710Y52773D01*
X295647Y53836D01*
X294345Y54587D01*
X293013Y54944D01*
Y95399D01*
X293445Y95649D01*
X294225Y96429D01*
X294776Y97383D01*
X295061Y98448D01*
Y99551D01*
X294776Y100616D01*
X294225Y101571D01*
X293445Y102350D01*
X292490Y102902D01*
X291425Y103187D01*
X290323D01*
X289258Y102902D01*
X289158Y102844D01*
X287256Y104747D01*
Y105688D01*
X287756Y105895D01*
X288172Y105479D01*
X289176Y104900D01*
X290295Y104600D01*
X290374D01*
Y109000D01*
X291374D01*
Y104600D01*
D02*
G37*
G36*
X281374D02*
X281453D01*
X282572Y104900D01*
X283576Y105479D01*
X283783Y105686D01*
X284245Y105495D01*
Y104123D01*
X284360Y103547D01*
X284686Y103059D01*
X287029Y100715D01*
X286972Y100616D01*
X286687Y99551D01*
Y98448D01*
X286972Y97383D01*
X287523Y96429D01*
X288303Y95649D01*
X289258Y95098D01*
X290003Y94898D01*
Y54604D01*
X289938Y54587D01*
X288636Y53836D01*
X287574Y52773D01*
X286822Y51471D01*
X286635Y50773D01*
X279238D01*
X270946Y59064D01*
X270458Y59391D01*
X269882Y59505D01*
X258216D01*
X258025Y59967D01*
X261420Y63362D01*
X261863Y63244D01*
X263366D01*
X264818Y63633D01*
X266119Y64385D01*
X267182Y65447D01*
X267934Y66749D01*
X268323Y68201D01*
Y69704D01*
X267934Y71156D01*
X267572Y71782D01*
X281938Y86148D01*
X282265Y86636D01*
X282379Y87212D01*
Y95068D01*
X282490Y95098D01*
X283445Y95649D01*
X284225Y96429D01*
X284776Y97383D01*
X285061Y98448D01*
Y99551D01*
X284776Y100616D01*
X284225Y101571D01*
X283445Y102350D01*
X282490Y102902D01*
X281425Y103187D01*
X280323D01*
X279258Y102902D01*
X279158Y102844D01*
X277256Y104747D01*
Y105688D01*
X277756Y105895D01*
X278172Y105479D01*
X279176Y104900D01*
X280295Y104600D01*
X280374D01*
Y109000D01*
X281374D01*
Y104600D01*
D02*
G37*
G36*
X271374D02*
X271453D01*
X272572Y104900D01*
X273576Y105479D01*
X273783Y105686D01*
X274245Y105495D01*
Y104123D01*
X274360Y103547D01*
X274686Y103059D01*
X277029Y100715D01*
X276972Y100616D01*
X276687Y99551D01*
Y98448D01*
X276972Y97383D01*
X277523Y96429D01*
X278303Y95649D01*
X279258Y95098D01*
X279369Y95068D01*
Y87836D01*
X265444Y73911D01*
X264818Y74272D01*
X263366Y74661D01*
X261863D01*
X260411Y74272D01*
X259109Y73521D01*
X258222Y72633D01*
X257722Y72841D01*
Y83719D01*
X269158Y95155D01*
X269258Y95098D01*
X270323Y94812D01*
X271425D01*
X272490Y95098D01*
X273445Y95649D01*
X274225Y96429D01*
X274776Y97383D01*
X275061Y98448D01*
Y99551D01*
X274776Y100616D01*
X274225Y101571D01*
X273445Y102350D01*
X272490Y102902D01*
X271425Y103187D01*
X270323D01*
X269258Y102902D01*
X269158Y102844D01*
X267256Y104747D01*
Y105688D01*
X267756Y105895D01*
X268172Y105479D01*
X269176Y104900D01*
X270295Y104600D01*
X270374D01*
Y109000D01*
X271374D01*
Y104600D01*
D02*
G37*
G36*
X261374D02*
X261453D01*
X262572Y104900D01*
X263576Y105479D01*
X263783Y105686D01*
X264245Y105495D01*
Y104123D01*
X264360Y103547D01*
X264686Y103059D01*
X267029Y100715D01*
X266972Y100616D01*
X266687Y99551D01*
Y98448D01*
X266972Y97383D01*
X267029Y97284D01*
X255152Y85407D01*
X254826Y84918D01*
X254711Y84342D01*
Y63973D01*
X249138Y58400D01*
X248638Y58607D01*
Y59862D01*
X248249Y61313D01*
X247497Y62615D01*
X246434Y63678D01*
X245133Y64430D01*
X244434Y64617D01*
Y80431D01*
X259158Y95155D01*
X259258Y95098D01*
X260323Y94812D01*
X261425D01*
X262490Y95098D01*
X263445Y95649D01*
X264225Y96429D01*
X264776Y97383D01*
X265061Y98448D01*
Y99551D01*
X264776Y100616D01*
X264225Y101571D01*
X263445Y102350D01*
X262490Y102902D01*
X261425Y103187D01*
X260323D01*
X259258Y102902D01*
X259158Y102844D01*
X257256Y104747D01*
Y105688D01*
X257756Y105895D01*
X258172Y105479D01*
X259176Y104900D01*
X260295Y104600D01*
X260374D01*
Y109000D01*
X261374D01*
Y104600D01*
D02*
G37*
G36*
X340129Y105743D02*
X340617Y105416D01*
X341193Y105302D01*
X357795D01*
Y104346D01*
X357906Y103498D01*
X358234Y102708D01*
X358754Y102030D01*
X359433Y101509D01*
X360223Y101182D01*
X361071Y101070D01*
X386855D01*
Y96929D01*
X361071D01*
X360223Y96818D01*
X359433Y96491D01*
X358754Y95970D01*
X358234Y95291D01*
X357906Y94501D01*
X357795Y93653D01*
Y92698D01*
X352431D01*
X334083Y111046D01*
X334086Y111078D01*
X334607Y111265D01*
X340129Y105743D01*
D02*
G37*
G36*
X109262Y92876D02*
Y91166D01*
X108762Y90832D01*
X108500Y90941D01*
Y89000D01*
Y87059D01*
X108762Y87168D01*
X109262Y86834D01*
Y81166D01*
X108762Y80832D01*
X108500Y80941D01*
Y79000D01*
Y77059D01*
X108762Y77168D01*
X109262Y76834D01*
Y67045D01*
X109377Y66470D01*
X109703Y65981D01*
X132084Y43600D01*
X131953Y43110D01*
Y41866D01*
X132275Y40664D01*
X132897Y39587D01*
X133404Y39080D01*
X133197Y38580D01*
X131809D01*
X130009Y40379D01*
X130174Y40664D01*
X130496Y41866D01*
Y43110D01*
X130174Y44312D01*
X129552Y45389D01*
X128673Y46268D01*
X127595Y46891D01*
X126394Y47212D01*
X125150D01*
X123948Y46891D01*
X123663Y46726D01*
X112082Y58306D01*
X112082Y58306D01*
X106072Y64316D01*
Y77415D01*
X106572Y77622D01*
X106876Y77318D01*
X107500Y77059D01*
Y79000D01*
Y80941D01*
X106876Y80682D01*
X106318Y80124D01*
X106274Y80018D01*
X105972Y79861D01*
X105669Y79863D01*
X105505Y80069D01*
Y93070D01*
X108209D01*
X108762Y93180D01*
X109262Y92876D01*
D02*
G37*
G36*
X76500Y87659D02*
X76580Y87692D01*
X77150Y87387D01*
X77215Y87062D01*
X77628Y86443D01*
X77672Y86414D01*
Y83304D01*
X77172Y82969D01*
X77000Y83041D01*
Y81100D01*
Y79159D01*
X77624Y79418D01*
X77983Y79777D01*
X78626Y79841D01*
X80845Y77622D01*
Y74709D01*
X78471D01*
X73605Y79575D01*
Y88890D01*
X74105Y88989D01*
X74318Y88476D01*
X74876Y87918D01*
X75500Y87659D01*
Y89600D01*
X76500D01*
Y87659D01*
D02*
G37*
G36*
X70436Y99602D02*
X70443Y99474D01*
X70190Y99095D01*
X70107Y99040D01*
X68168Y97101D01*
X67842Y96612D01*
X67727Y96036D01*
Y78757D01*
X67842Y78181D01*
X68168Y77692D01*
X69495Y76365D01*
Y74709D01*
X68343D01*
Y70305D01*
X66032D01*
X65532Y70205D01*
X65109Y69923D01*
X63895Y68709D01*
X63305D01*
Y86182D01*
X63805Y86389D01*
X63876Y86318D01*
X64500Y86059D01*
Y88000D01*
Y89941D01*
X63876Y89682D01*
X63805Y89611D01*
X63305Y89818D01*
Y94735D01*
X68540Y99971D01*
X70287D01*
X70436Y99602D01*
D02*
G37*
G36*
X88800Y81059D02*
X89424Y81318D01*
X89587Y81481D01*
X90130Y81316D01*
X90184Y81042D01*
X90510Y80553D01*
X93323Y77741D01*
Y74709D01*
X92067D01*
Y69591D01*
X96566D01*
Y68410D01*
X92067D01*
Y63291D01*
X93219D01*
Y60707D01*
X90789Y58277D01*
X90220Y58041D01*
X89722Y57543D01*
X89452Y56892D01*
Y56187D01*
X89722Y55536D01*
X90220Y55037D01*
X90872Y54768D01*
X91550D01*
Y47212D01*
X88331D01*
Y37764D01*
X95651D01*
X97136Y36279D01*
X97006Y35796D01*
X96684Y35709D01*
X95607Y35087D01*
X94727Y34208D01*
X94105Y33130D01*
X94020Y32812D01*
X87895D01*
X65868Y54839D01*
X65379Y55166D01*
X64803Y55280D01*
X59849D01*
X56895Y58233D01*
X57087Y58695D01*
X61000D01*
X61499Y58795D01*
X61923Y59078D01*
X62923Y60078D01*
X63205Y60501D01*
X63305Y61000D01*
Y61228D01*
X65386D01*
Y64402D01*
X65886Y64609D01*
X65996Y64498D01*
X66648Y64228D01*
X67352D01*
X67815Y64420D01*
X68343D01*
Y63291D01*
X73658D01*
Y67695D01*
X76342D01*
Y63291D01*
X77137D01*
X77410Y62791D01*
X77228Y62352D01*
Y61648D01*
X77498Y60996D01*
X77996Y60498D01*
X78648Y60228D01*
X79352D01*
X80004Y60498D01*
X80502Y60996D01*
X80772Y61648D01*
Y62352D01*
X80590Y62791D01*
X80863Y63291D01*
X81657D01*
Y67766D01*
X81801Y67795D01*
X82224Y68077D01*
X83072Y68925D01*
X83355Y69349D01*
X83454Y69848D01*
Y77764D01*
X83954Y77863D01*
X84211Y77478D01*
X85495Y76195D01*
Y74709D01*
X84342D01*
Y69591D01*
X89657D01*
Y74709D01*
X88505D01*
Y76818D01*
X88391Y77394D01*
X88064Y77883D01*
X86781Y79166D01*
Y81060D01*
X87281Y81274D01*
X87800Y81059D01*
Y83000D01*
X88800D01*
Y81059D01*
D02*
G37*
G36*
X357795Y88732D02*
X357906Y87884D01*
X358234Y87094D01*
X358754Y86416D01*
X359433Y85895D01*
X360223Y85568D01*
X361071Y85456D01*
X386855D01*
Y81339D01*
X361071D01*
X360223Y81227D01*
X359433Y80900D01*
X358754Y80379D01*
X358234Y79701D01*
X357906Y78911D01*
X357795Y78063D01*
Y77108D01*
X355187D01*
X352671Y79624D01*
Y87618D01*
X352556Y88194D01*
X352230Y88682D01*
X351714Y89198D01*
X351750Y89385D01*
X351932Y89688D01*
X357795D01*
Y88732D01*
D02*
G37*
G36*
X170172Y74622D02*
X169904Y74122D01*
X169630D01*
Y70579D01*
X169630D01*
Y70185D01*
X169630D01*
Y66642D01*
X173090D01*
X173297Y66142D01*
X171196Y64041D01*
X161970D01*
X161693Y64457D01*
X161772Y64648D01*
Y65352D01*
X161502Y66004D01*
X161392Y66113D01*
Y66958D01*
X161381Y67012D01*
Y67419D01*
X161731Y67941D01*
X161883Y68709D01*
Y71735D01*
X161909Y71752D01*
X162652D01*
Y70882D01*
X164876D01*
X167100D01*
Y72055D01*
X166931Y72907D01*
X166449Y73628D01*
X165727Y74110D01*
X165298Y74195D01*
X165347Y74695D01*
X170123D01*
X170172Y74622D01*
D02*
G37*
%LPC*%
G36*
X347500Y186941D02*
Y185500D01*
X348941D01*
X348682Y186124D01*
X348124Y186682D01*
X347500Y186941D01*
D02*
G37*
G36*
X346500D02*
X345876Y186682D01*
X345318Y186124D01*
X345059Y185500D01*
X346500D01*
Y186941D01*
D02*
G37*
G36*
X373858Y190711D02*
X361071D01*
X360167Y190592D01*
X359326Y190243D01*
X358603Y189689D01*
X358048Y188966D01*
X357699Y188124D01*
X357580Y187220D01*
Y185260D01*
X373858D01*
Y190711D01*
D02*
G37*
G36*
X31087D02*
X18299D01*
Y185260D01*
X34577D01*
Y187220D01*
X34458Y188124D01*
X34109Y188966D01*
X33555Y189689D01*
X32832Y190243D01*
X31990Y190592D01*
X31087Y190711D01*
D02*
G37*
G36*
X43865Y186677D02*
Y185236D01*
X45305D01*
X45047Y185860D01*
X44489Y186418D01*
X43865Y186677D01*
D02*
G37*
G36*
X42865D02*
X42241Y186418D01*
X41683Y185860D01*
X41424Y185236D01*
X42865D01*
Y186677D01*
D02*
G37*
G36*
X348941Y184500D02*
X347500D01*
Y183059D01*
X348124Y183318D01*
X348682Y183876D01*
X348941Y184500D01*
D02*
G37*
G36*
X346500D02*
X345059D01*
X345318Y183876D01*
X345876Y183318D01*
X346500Y183059D01*
Y184500D01*
D02*
G37*
G36*
X45305Y184236D02*
X43865D01*
Y182795D01*
X44489Y183054D01*
X45047Y183612D01*
X45305Y184236D01*
D02*
G37*
G36*
X42865D02*
X41424D01*
X41683Y183612D01*
X42241Y183054D01*
X42865Y182795D01*
Y184236D01*
D02*
G37*
G36*
X373858Y184260D02*
X357580D01*
Y182299D01*
X357699Y181396D01*
X358048Y180554D01*
X358603Y179831D01*
X359326Y179276D01*
X360167Y178928D01*
X361071Y178809D01*
X373858D01*
Y184260D01*
D02*
G37*
G36*
X51400Y166241D02*
Y164800D01*
X52841D01*
X52582Y165424D01*
X52024Y165982D01*
X51400Y166241D01*
D02*
G37*
G36*
X50400D02*
X49776Y165982D01*
X49218Y165424D01*
X48959Y164800D01*
X50400D01*
Y166241D01*
D02*
G37*
G36*
X52841Y163800D02*
X51400D01*
Y162359D01*
X52024Y162618D01*
X52582Y163176D01*
X52841Y163800D01*
D02*
G37*
G36*
X50400D02*
X48959D01*
X49218Y163176D01*
X49776Y162618D01*
X50400Y162359D01*
Y163800D01*
D02*
G37*
G36*
X38100Y161641D02*
Y160200D01*
X39541D01*
X39282Y160824D01*
X38724Y161382D01*
X38100Y161641D01*
D02*
G37*
G36*
X37100D02*
X36476Y161382D01*
X35918Y160824D01*
X35659Y160200D01*
X37100D01*
Y161641D01*
D02*
G37*
G36*
X39541Y159200D02*
X38100D01*
Y157759D01*
X38724Y158018D01*
X39282Y158576D01*
X39541Y159200D01*
D02*
G37*
G36*
X37100D02*
X35659D01*
X35918Y158576D01*
X36476Y158018D01*
X37100Y157759D01*
Y159200D01*
D02*
G37*
G36*
X76776Y165659D02*
X76072D01*
X75420Y165389D01*
X74922Y164891D01*
X74652Y164239D01*
Y163535D01*
X74919Y162892D01*
Y162262D01*
X73865D01*
Y156947D01*
X78983D01*
Y162262D01*
X77929D01*
Y162892D01*
X78196Y163535D01*
Y164239D01*
X77926Y164891D01*
X77428Y165389D01*
X76776Y165659D01*
D02*
G37*
G36*
X72059Y185259D02*
X63398D01*
Y176598D01*
X66223D01*
Y162099D01*
X66338Y161523D01*
X66664Y161035D01*
X67566Y160133D01*
Y156947D01*
X72684D01*
Y162262D01*
X69695D01*
X69234Y162723D01*
Y174106D01*
X70487D01*
X71082Y174225D01*
X71587Y174562D01*
X71924Y175067D01*
X72043Y175662D01*
Y176598D01*
X72059D01*
Y185259D01*
D02*
G37*
G36*
X55500Y146941D02*
Y145500D01*
X56941D01*
X56682Y146124D01*
X56124Y146682D01*
X55500Y146941D01*
D02*
G37*
G36*
X54500D02*
X53876Y146682D01*
X53318Y146124D01*
X53059Y145500D01*
X54500D01*
Y146941D01*
D02*
G37*
G36*
X38924Y145665D02*
Y144225D01*
X40365D01*
X40106Y144849D01*
X39548Y145407D01*
X38924Y145665D01*
D02*
G37*
G36*
X37924D02*
X37300Y145407D01*
X36742Y144849D01*
X36483Y144225D01*
X37924D01*
Y145665D01*
D02*
G37*
G36*
X40365Y143225D02*
X38924D01*
Y141784D01*
X39548Y142043D01*
X40106Y142601D01*
X40365Y143225D01*
D02*
G37*
G36*
X37924D02*
X36483D01*
X36742Y142601D01*
X37300Y142043D01*
X37924Y141784D01*
Y143225D01*
D02*
G37*
G36*
X56941Y144500D02*
X53059D01*
X53318Y143876D01*
X53876Y143318D01*
X54605Y143016D01*
X54980D01*
Y141500D01*
X57547D01*
Y143968D01*
X57170D01*
X56893Y144384D01*
X56941Y144500D01*
D02*
G37*
G36*
X57547Y140500D02*
X54980D01*
Y138031D01*
X57547D01*
Y140500D01*
D02*
G37*
G36*
X57618Y136740D02*
X55346D01*
Y134665D01*
X57618D01*
Y136740D01*
D02*
G37*
G36*
X51200Y136041D02*
Y134600D01*
X52641D01*
X52382Y135224D01*
X51824Y135782D01*
X51200Y136041D01*
D02*
G37*
G36*
X50200D02*
X49576Y135782D01*
X49018Y135224D01*
X48759Y134600D01*
X50200D01*
Y136041D01*
D02*
G37*
G36*
X52641Y133600D02*
X51200D01*
Y132159D01*
X51824Y132418D01*
X52382Y132976D01*
X52641Y133600D01*
D02*
G37*
G36*
X50200D02*
X48759D01*
X49018Y132976D01*
X49576Y132418D01*
X50200Y132159D01*
Y133600D01*
D02*
G37*
G36*
X37800Y130441D02*
Y129000D01*
X39241D01*
X38982Y129624D01*
X38424Y130182D01*
X37800Y130441D01*
D02*
G37*
G36*
X36800D02*
X36176Y130182D01*
X35618Y129624D01*
X35359Y129000D01*
X36800D01*
Y130441D01*
D02*
G37*
G36*
X39241Y128000D02*
X37800D01*
Y126559D01*
X38424Y126818D01*
X38982Y127376D01*
X39241Y128000D01*
D02*
G37*
G36*
X36800D02*
X35359D01*
X35618Y127376D01*
X36176Y126818D01*
X36800Y126559D01*
Y128000D01*
D02*
G37*
G36*
X38400Y114841D02*
Y113400D01*
X39841D01*
X39582Y114024D01*
X39024Y114582D01*
X38400Y114841D01*
D02*
G37*
G36*
X37400D02*
X36776Y114582D01*
X36218Y114024D01*
X35959Y113400D01*
X37400D01*
Y114841D01*
D02*
G37*
G36*
X58500Y113941D02*
X57876Y113682D01*
X57318Y113124D01*
X57059Y112500D01*
X58500D01*
Y113941D01*
D02*
G37*
G36*
X39841Y112400D02*
X38400D01*
Y110959D01*
X39024Y111218D01*
X39582Y111776D01*
X39841Y112400D01*
D02*
G37*
G36*
X37400D02*
X35959D01*
X36218Y111776D01*
X36776Y111218D01*
X37400Y110959D01*
Y112400D01*
D02*
G37*
G36*
X58500Y111500D02*
X57059D01*
X57318Y110876D01*
X57876Y110318D01*
X58500Y110059D01*
Y111500D01*
D02*
G37*
G36*
Y107941D02*
X57876Y107682D01*
X57318Y107124D01*
X57059Y106500D01*
X58500D01*
Y107941D01*
D02*
G37*
G36*
X40200Y96641D02*
Y95200D01*
X41641D01*
X41382Y95824D01*
X40824Y96382D01*
X40200Y96641D01*
D02*
G37*
G36*
X39200D02*
X38576Y96382D01*
X38018Y95824D01*
X37759Y95200D01*
X39200D01*
Y96641D01*
D02*
G37*
G36*
X41641Y94200D02*
X40200D01*
Y92759D01*
X40824Y93018D01*
X41382Y93576D01*
X41641Y94200D01*
D02*
G37*
G36*
X39200D02*
X37759D01*
X38018Y93576D01*
X38576Y93018D01*
X39200Y92759D01*
Y94200D01*
D02*
G37*
G36*
X38100Y84141D02*
Y82700D01*
X39541D01*
X39282Y83324D01*
X38724Y83882D01*
X38100Y84141D01*
D02*
G37*
G36*
X37100D02*
X36476Y83882D01*
X35918Y83324D01*
X35659Y82700D01*
X37100D01*
Y84141D01*
D02*
G37*
G36*
X39541Y81700D02*
X38100D01*
Y80259D01*
X38724Y80518D01*
X39282Y81076D01*
X39541Y81700D01*
D02*
G37*
G36*
X37100D02*
X35659D01*
X35918Y81076D01*
X36476Y80518D01*
X37100Y80259D01*
Y81700D01*
D02*
G37*
G36*
X227788Y159980D02*
X224500D01*
Y158315D01*
X224629Y157334D01*
X225007Y156421D01*
X225609Y155636D01*
X226394Y155034D01*
X227308Y154656D01*
X227788Y154592D01*
Y159980D01*
D02*
G37*
G36*
X223572D02*
X220284D01*
Y154592D01*
X220765Y154656D01*
X221678Y155034D01*
X222463Y155636D01*
X223065Y156421D01*
X223443Y157334D01*
X223572Y158315D01*
Y159980D01*
D02*
G37*
G36*
X219284D02*
X215996D01*
Y158315D01*
X216125Y157334D01*
X216503Y156421D01*
X217105Y155636D01*
X217890Y155034D01*
X218804Y154656D01*
X219284Y154592D01*
Y159980D01*
D02*
G37*
G36*
X215069D02*
X211780D01*
Y154592D01*
X212261Y154656D01*
X213174Y155034D01*
X213959Y155636D01*
X214561Y156421D01*
X214939Y157334D01*
X215069Y158315D01*
Y159980D01*
D02*
G37*
G36*
X210780D02*
X207492D01*
Y158315D01*
X207621Y157334D01*
X207999Y156421D01*
X208601Y155636D01*
X209386Y155034D01*
X210300Y154656D01*
X210780Y154592D01*
Y159980D01*
D02*
G37*
G36*
X262804Y166368D02*
Y160980D01*
X266092D01*
Y162645D01*
X265963Y163626D01*
X265584Y164540D01*
X264983Y165324D01*
X264198Y165926D01*
X263284Y166305D01*
X262804Y166368D01*
D02*
G37*
G36*
X261804D02*
X261323Y166305D01*
X260410Y165926D01*
X259625Y165324D01*
X259023Y164540D01*
X258645Y163626D01*
X258516Y162645D01*
Y160980D01*
X261804D01*
Y166368D01*
D02*
G37*
G36*
X254300D02*
Y160980D01*
X257588D01*
Y162645D01*
X257459Y163626D01*
X257081Y164540D01*
X256479Y165324D01*
X255694Y165926D01*
X254780Y166305D01*
X254300Y166368D01*
D02*
G37*
G36*
X253300D02*
X252819Y166305D01*
X251906Y165926D01*
X251121Y165324D01*
X250519Y164540D01*
X250141Y163626D01*
X250011Y162645D01*
Y160980D01*
X253300D01*
Y166368D01*
D02*
G37*
G36*
X245796D02*
Y160980D01*
X249084D01*
Y162645D01*
X248955Y163626D01*
X248577Y164540D01*
X247975Y165324D01*
X247190Y165926D01*
X246276Y166305D01*
X245796Y166368D01*
D02*
G37*
G36*
X244796D02*
X244315Y166305D01*
X243402Y165926D01*
X242617Y165324D01*
X242015Y164540D01*
X241637Y163626D01*
X241508Y162645D01*
Y160980D01*
X244796D01*
Y166368D01*
D02*
G37*
G36*
X237292D02*
Y160980D01*
X240580D01*
Y162645D01*
X240451Y163626D01*
X240073Y164540D01*
X239471Y165324D01*
X238686Y165926D01*
X237772Y166305D01*
X237292Y166368D01*
D02*
G37*
G36*
X160500Y158390D02*
Y156949D01*
X161941D01*
X161682Y157573D01*
X161124Y158131D01*
X160500Y158390D01*
D02*
G37*
G36*
X159500D02*
X158876Y158131D01*
X158318Y157573D01*
X158059Y156949D01*
X159500D01*
Y158390D01*
D02*
G37*
G36*
X266092Y159980D02*
X262804D01*
Y154592D01*
X263284Y154656D01*
X264198Y155034D01*
X264983Y155636D01*
X265584Y156421D01*
X265963Y157334D01*
X266092Y158315D01*
Y159980D01*
D02*
G37*
G36*
X261804D02*
X258516D01*
Y158315D01*
X258645Y157334D01*
X259023Y156421D01*
X259625Y155636D01*
X260410Y155034D01*
X261323Y154656D01*
X261804Y154592D01*
Y159980D01*
D02*
G37*
G36*
X257588D02*
X254300D01*
Y154592D01*
X254780Y154656D01*
X255694Y155034D01*
X256479Y155636D01*
X257081Y156421D01*
X257459Y157334D01*
X257588Y158315D01*
Y159980D01*
D02*
G37*
G36*
X253300D02*
X250011D01*
Y158315D01*
X250141Y157334D01*
X250519Y156421D01*
X251121Y155636D01*
X251906Y155034D01*
X252819Y154656D01*
X253300Y154592D01*
Y159980D01*
D02*
G37*
G36*
X249084D02*
X245796D01*
Y154592D01*
X246276Y154656D01*
X247190Y155034D01*
X247975Y155636D01*
X248577Y156421D01*
X248955Y157334D01*
X249084Y158315D01*
Y159980D01*
D02*
G37*
G36*
X244796D02*
X241508D01*
Y158315D01*
X241637Y157334D01*
X242015Y156421D01*
X242617Y155636D01*
X243402Y155034D01*
X244315Y154656D01*
X244796Y154592D01*
Y159980D01*
D02*
G37*
G36*
X161941Y155949D02*
X160500D01*
Y154508D01*
X161124Y154767D01*
X161682Y155325D01*
X161941Y155949D01*
D02*
G37*
G36*
X159500D02*
X158059D01*
X158318Y155325D01*
X158876Y154767D01*
X159500Y154508D01*
Y155949D01*
D02*
G37*
G36*
X307237Y162740D02*
X306884D01*
X305198Y162473D01*
X303575Y161946D01*
X302054Y161171D01*
X300673Y160168D01*
X299467Y158961D01*
X298464Y157580D01*
X297689Y156060D01*
X297161Y154436D01*
X296894Y152751D01*
Y152398D01*
X307237D01*
Y162740D01*
D02*
G37*
G36*
X124338D02*
X123985D01*
Y152398D01*
X134327D01*
Y152751D01*
X134060Y154436D01*
X133533Y156060D01*
X132758Y157580D01*
X131755Y158961D01*
X130548Y160168D01*
X129168Y161171D01*
X127647Y161946D01*
X126024Y162473D01*
X124338Y162740D01*
D02*
G37*
G36*
X122985D02*
X122632D01*
X120946Y162473D01*
X119323Y161946D01*
X117802Y161171D01*
X116421Y160168D01*
X115215Y158961D01*
X114211Y157580D01*
X113437Y156060D01*
X112909Y154436D01*
X112642Y152751D01*
Y152398D01*
X122985D01*
Y162740D01*
D02*
G37*
G36*
X160500Y147356D02*
Y145915D01*
X161941D01*
X161682Y146539D01*
X161124Y147097D01*
X160500Y147356D01*
D02*
G37*
G36*
X159500D02*
X158876Y147097D01*
X158318Y146539D01*
X158059Y145915D01*
X159500D01*
Y147356D01*
D02*
G37*
G36*
X262804Y149360D02*
Y143972D01*
X266092D01*
Y145638D01*
X265963Y146618D01*
X265584Y147532D01*
X264983Y148316D01*
X264198Y148918D01*
X263284Y149297D01*
X262804Y149360D01*
D02*
G37*
G36*
X261804D02*
X261323Y149297D01*
X260410Y148918D01*
X259625Y148316D01*
X259023Y147532D01*
X258645Y146618D01*
X258516Y145638D01*
Y143972D01*
X261804D01*
Y149360D01*
D02*
G37*
G36*
X161941Y144915D02*
X160500D01*
Y143475D01*
X161124Y143733D01*
X161682Y144291D01*
X161941Y144915D01*
D02*
G37*
G36*
X159500D02*
X158059D01*
X158318Y144291D01*
X158876Y143733D01*
X159500Y143475D01*
Y144915D01*
D02*
G37*
G36*
X307237Y151398D02*
X296894D01*
Y151044D01*
X297161Y149358D01*
X297689Y147735D01*
X298464Y146215D01*
X299467Y144834D01*
X300673Y143627D01*
X302054Y142624D01*
X303575Y141849D01*
X305198Y141322D01*
X306884Y141055D01*
X307237D01*
Y151398D01*
D02*
G37*
G36*
X134327D02*
X123985D01*
Y141055D01*
X124338D01*
X126024Y141322D01*
X127647Y141849D01*
X129168Y142624D01*
X130548Y143627D01*
X131755Y144834D01*
X132758Y146215D01*
X133533Y147735D01*
X134060Y149358D01*
X134327Y151044D01*
Y151398D01*
D02*
G37*
G36*
X122985D02*
X112642D01*
Y151044D01*
X112909Y149358D01*
X113437Y147735D01*
X114211Y146215D01*
X115215Y144834D01*
X116421Y143627D01*
X117802Y142624D01*
X119323Y141849D01*
X120946Y141322D01*
X122632Y141055D01*
X122985D01*
Y151398D01*
D02*
G37*
G36*
X266092Y142972D02*
X262804D01*
Y137584D01*
X263284Y137648D01*
X264198Y138026D01*
X264983Y138628D01*
X265584Y139413D01*
X265963Y140326D01*
X266092Y141307D01*
Y142972D01*
D02*
G37*
G36*
X261804D02*
X258516D01*
Y141307D01*
X258645Y140326D01*
X259023Y139413D01*
X259625Y138628D01*
X260410Y138026D01*
X261323Y137648D01*
X261804Y137584D01*
Y142972D01*
D02*
G37*
G36*
X151500Y138941D02*
Y137500D01*
X152941D01*
X152682Y138124D01*
X152124Y138682D01*
X151500Y138941D01*
D02*
G37*
G36*
X150500D02*
X149876Y138682D01*
X149318Y138124D01*
X149059Y137500D01*
X150500D01*
Y138941D01*
D02*
G37*
G36*
X152941Y136500D02*
X151500D01*
Y135059D01*
X152124Y135318D01*
X152682Y135876D01*
X152941Y136500D01*
D02*
G37*
G36*
X150500D02*
X149059D01*
X149318Y135876D01*
X149876Y135318D01*
X150500Y135059D01*
Y136500D01*
D02*
G37*
G36*
X110882Y128941D02*
Y127500D01*
X112323D01*
X112064Y128124D01*
X111506Y128682D01*
X110882Y128941D01*
D02*
G37*
G36*
X112323Y126500D02*
X110882D01*
Y125059D01*
X111506Y125318D01*
X112064Y125876D01*
X112323Y126500D01*
D02*
G37*
G36*
X112500Y120941D02*
Y119500D01*
X113941D01*
X113682Y120124D01*
X113124Y120682D01*
X112500Y120941D01*
D02*
G37*
G36*
X111500D02*
X110876Y120682D01*
X110318Y120124D01*
X110059Y119500D01*
X111500D01*
Y120941D01*
D02*
G37*
G36*
X113941Y118500D02*
X112500D01*
Y117059D01*
X113124Y117318D01*
X113682Y117876D01*
X113941Y118500D01*
D02*
G37*
G36*
X301453Y113400D02*
X301374D01*
Y109500D01*
X305274D01*
Y109579D01*
X304974Y110698D01*
X304395Y111701D01*
X303576Y112521D01*
X302572Y113100D01*
X301453Y113400D01*
D02*
G37*
G36*
X310374D02*
X310295D01*
X309176Y113100D01*
X308172Y112521D01*
X307353Y111701D01*
X306774Y110698D01*
X306474Y109579D01*
Y109500D01*
X310374D01*
Y113400D01*
D02*
G37*
G36*
Y108500D02*
X306474D01*
Y108420D01*
X306774Y107301D01*
X307353Y106298D01*
X308172Y105479D01*
X309176Y104900D01*
X310295Y104600D01*
X310374D01*
Y108500D01*
D02*
G37*
G36*
X305274D02*
X301374D01*
Y104600D01*
X301453D01*
X302572Y104900D01*
X303576Y105479D01*
X304395Y106298D01*
X304974Y107301D01*
X305274Y108420D01*
Y108500D01*
D02*
G37*
G36*
X310374Y103400D02*
X310295D01*
X309176Y103100D01*
X308172Y102521D01*
X307353Y101701D01*
X306774Y100698D01*
X306474Y99579D01*
Y99500D01*
X310374D01*
Y103400D01*
D02*
G37*
G36*
Y98500D02*
X306474D01*
Y98420D01*
X306774Y97301D01*
X307353Y96298D01*
X308172Y95479D01*
X309176Y94899D01*
X310295Y94600D01*
X310374D01*
Y98500D01*
D02*
G37*
G36*
X171500Y92941D02*
Y91500D01*
X172941D01*
X172682Y92124D01*
X172124Y92682D01*
X171500Y92941D01*
D02*
G37*
G36*
X170500D02*
X169876Y92682D01*
X169318Y92124D01*
X169059Y91500D01*
X170500D01*
Y92941D01*
D02*
G37*
G36*
X172941Y90500D02*
X171500D01*
Y89059D01*
X172124Y89318D01*
X172682Y89876D01*
X172941Y90500D01*
D02*
G37*
G36*
X170500D02*
X169059D01*
X169318Y89876D01*
X169876Y89318D01*
X170500Y89059D01*
Y90500D01*
D02*
G37*
G36*
X175500Y86375D02*
Y84934D01*
X176941D01*
X176682Y85558D01*
X176124Y86116D01*
X175500Y86375D01*
D02*
G37*
G36*
X174500D02*
X173876Y86116D01*
X173318Y85558D01*
X173059Y84934D01*
X174500D01*
Y86375D01*
D02*
G37*
G36*
X176941Y83934D02*
X175500D01*
Y82494D01*
X176124Y82752D01*
X176682Y83310D01*
X176941Y83934D01*
D02*
G37*
G36*
X174500D02*
X173059D01*
X173318Y83310D01*
X173876Y82752D01*
X174500Y82494D01*
Y83934D01*
D02*
G37*
G36*
X232600Y71141D02*
Y69700D01*
X234041D01*
X233782Y70324D01*
X233224Y70882D01*
X232600Y71141D01*
D02*
G37*
G36*
X231600D02*
X230976Y70882D01*
X230418Y70324D01*
X230159Y69700D01*
X231600D01*
Y71141D01*
D02*
G37*
G36*
X336600Y70141D02*
Y68700D01*
X338041D01*
X337782Y69324D01*
X337224Y69882D01*
X336600Y70141D01*
D02*
G37*
G36*
X335600D02*
X334976Y69882D01*
X334418Y69324D01*
X334159Y68700D01*
X335600D01*
Y70141D01*
D02*
G37*
G36*
X234041Y68700D02*
X232600D01*
Y67259D01*
X233224Y67518D01*
X233782Y68076D01*
X234041Y68700D01*
D02*
G37*
G36*
X231600D02*
X230159D01*
X230418Y68076D01*
X230976Y67518D01*
X231600Y67259D01*
Y68700D01*
D02*
G37*
G36*
X38100Y68041D02*
Y66600D01*
X39541D01*
X39282Y67224D01*
X38724Y67782D01*
X38100Y68041D01*
D02*
G37*
G36*
X37100D02*
X36476Y67782D01*
X35918Y67224D01*
X35659Y66600D01*
X37100D01*
Y68041D01*
D02*
G37*
G36*
X338041Y67700D02*
X336600D01*
Y66259D01*
X337224Y66518D01*
X337782Y67076D01*
X338041Y67700D01*
D02*
G37*
G36*
X335600D02*
X334159D01*
X334418Y67076D01*
X334976Y66518D01*
X335600Y66259D01*
Y67700D01*
D02*
G37*
G36*
X39541Y65600D02*
X38100D01*
Y64159D01*
X38724Y64418D01*
X39282Y64976D01*
X39541Y65600D01*
D02*
G37*
G36*
X37100D02*
X35659D01*
X35918Y64976D01*
X36476Y64418D01*
X37100Y64159D01*
Y65600D01*
D02*
G37*
G36*
X309200Y64541D02*
Y63100D01*
X310641D01*
X310382Y63724D01*
X309824Y64282D01*
X309200Y64541D01*
D02*
G37*
G36*
X308200D02*
X307576Y64282D01*
X307018Y63724D01*
X306759Y63100D01*
X308200D01*
Y64541D01*
D02*
G37*
G36*
X332131Y67409D02*
X326816D01*
Y62291D01*
X329718D01*
X330817Y61192D01*
X330757Y60948D01*
X330596Y60706D01*
X329027D01*
X328868Y60772D01*
X328164D01*
X327512Y60502D01*
X327014Y60004D01*
X326744Y59352D01*
Y58648D01*
X327014Y57996D01*
X327512Y57498D01*
X328164Y57228D01*
X328868D01*
X329027Y57294D01*
X329990D01*
X333089Y54195D01*
X333025Y53943D01*
X332867Y53710D01*
X327813D01*
X322816Y58707D01*
Y63964D01*
X322783Y64129D01*
Y67409D01*
X317469D01*
Y62291D01*
X319404D01*
Y58000D01*
X319534Y57347D01*
X319904Y56794D01*
X324216Y52481D01*
X324025Y52019D01*
X322500D01*
Y49452D01*
X324968D01*
Y51076D01*
X325430Y51267D01*
X325900Y50797D01*
X326454Y50428D01*
X327107Y50298D01*
X331291D01*
Y47378D01*
X342709D01*
Y53677D01*
X342151D01*
Y56214D01*
X342021Y56867D01*
X341651Y57421D01*
X337776Y61296D01*
X337223Y61665D01*
X336570Y61795D01*
X335039D01*
X332131Y64704D01*
Y67409D01*
D02*
G37*
G36*
X310641Y62100D02*
X309200D01*
Y60659D01*
X309824Y60918D01*
X310382Y61476D01*
X310641Y62100D01*
D02*
G37*
G36*
X308200D02*
X306759D01*
X307018Y61476D01*
X307576Y60918D01*
X308200Y60659D01*
Y62100D01*
D02*
G37*
G36*
X35600Y54141D02*
Y52700D01*
X37041D01*
X36782Y53324D01*
X36224Y53882D01*
X35600Y54141D01*
D02*
G37*
G36*
X34600D02*
X33976Y53882D01*
X33418Y53324D01*
X33159Y52700D01*
X34600D01*
Y54141D01*
D02*
G37*
G36*
X37041Y51700D02*
X35600D01*
Y50259D01*
X36224Y50518D01*
X36782Y51076D01*
X37041Y51700D01*
D02*
G37*
G36*
X34600D02*
X33159D01*
X33418Y51076D01*
X33976Y50518D01*
X34600Y50259D01*
Y51700D01*
D02*
G37*
G36*
X321500Y52019D02*
X319031D01*
Y49452D01*
X321500D01*
Y52019D01*
D02*
G37*
G36*
X328600Y45741D02*
Y44300D01*
X330041D01*
X329782Y44924D01*
X329224Y45482D01*
X328600Y45741D01*
D02*
G37*
G36*
X327600D02*
X326976Y45482D01*
X326418Y44924D01*
X326159Y44300D01*
X327600D01*
Y45741D01*
D02*
G37*
G36*
X254200Y45641D02*
Y44200D01*
X255641D01*
X255382Y44824D01*
X254824Y45382D01*
X254200Y45641D01*
D02*
G37*
G36*
X253200D02*
X252576Y45382D01*
X252018Y44824D01*
X251759Y44200D01*
X253200D01*
Y45641D01*
D02*
G37*
G36*
X324968Y48452D02*
X319031D01*
Y45885D01*
X319244D01*
Y42605D01*
X318833Y42194D01*
X318459D01*
X318300Y42260D01*
X317595D01*
X317437Y42194D01*
X315331D01*
Y43834D01*
X306669D01*
Y37141D01*
X315331D01*
Y38782D01*
X317437D01*
X317595Y38716D01*
X318300D01*
X318459Y38782D01*
X319539D01*
X319794Y38833D01*
X320294Y38424D01*
Y35707D01*
X318694Y34106D01*
X318324Y33553D01*
X318194Y32900D01*
Y22000D01*
X318227Y21835D01*
Y18653D01*
X328250D01*
Y18441D01*
X329636D01*
Y22000D01*
Y25559D01*
X328445D01*
X328229Y26050D01*
X329914Y27735D01*
X335441D01*
X336094Y27865D01*
X336647Y28235D01*
X342206Y33794D01*
X342576Y34347D01*
X342706Y35000D01*
Y38323D01*
X342709D01*
Y44622D01*
X339181D01*
Y44834D01*
X337500D01*
Y41472D01*
X336500D01*
Y44834D01*
X334819D01*
Y44622D01*
X331291D01*
Y38323D01*
X331554D01*
Y35707D01*
X329553Y33706D01*
X328000D01*
X327347Y33576D01*
X326794Y33206D01*
X322068Y28480D01*
X321606Y28672D01*
Y32193D01*
X323206Y33794D01*
X323576Y34347D01*
X323706Y35000D01*
Y40192D01*
X324756D01*
Y45885D01*
X324968D01*
Y48452D01*
D02*
G37*
G36*
X330041Y43300D02*
X328600D01*
Y41859D01*
X329224Y42118D01*
X329782Y42676D01*
X330041Y43300D01*
D02*
G37*
G36*
X327600D02*
X326159D01*
X326418Y42676D01*
X326976Y42118D01*
X327600Y41859D01*
Y43300D01*
D02*
G37*
G36*
X255641Y43200D02*
X254200D01*
Y41759D01*
X254824Y42018D01*
X255382Y42576D01*
X255641Y43200D01*
D02*
G37*
G36*
X253200D02*
X251759D01*
X252018Y42576D01*
X252576Y42018D01*
X253200Y41759D01*
Y43200D01*
D02*
G37*
G36*
X197629Y47740D02*
X197276D01*
Y37398D01*
X207618D01*
Y37751D01*
X207351Y39436D01*
X206824Y41060D01*
X206049Y42580D01*
X205046Y43961D01*
X203839Y45168D01*
X202458Y46171D01*
X200938Y46946D01*
X199315Y47473D01*
X197629Y47740D01*
D02*
G37*
G36*
X196276D02*
X195922D01*
X194237Y47473D01*
X192613Y46946D01*
X191093Y46171D01*
X189712Y45168D01*
X188505Y43961D01*
X187502Y42580D01*
X186727Y41060D01*
X186200Y39436D01*
X185933Y37751D01*
Y37398D01*
X196276D01*
Y47740D01*
D02*
G37*
G36*
X65173D02*
X64820D01*
X63134Y47473D01*
X61511Y46946D01*
X59991Y46171D01*
X58610Y45168D01*
X57403Y43961D01*
X56400Y42580D01*
X55625Y41060D01*
X55098Y39436D01*
X54831Y37751D01*
Y37398D01*
X65173D01*
Y47740D01*
D02*
G37*
G36*
X311800Y35341D02*
Y33900D01*
X313241D01*
X312982Y34524D01*
X312424Y35082D01*
X311800Y35341D01*
D02*
G37*
G36*
X310800D02*
X310176Y35082D01*
X309618Y34524D01*
X309359Y33900D01*
X310800D01*
Y35341D01*
D02*
G37*
G36*
X313241Y32900D02*
X311800D01*
Y31459D01*
X312424Y31718D01*
X312982Y32276D01*
X313241Y32900D01*
D02*
G37*
G36*
X310800D02*
X309359D01*
X309618Y32276D01*
X310176Y31718D01*
X310800Y31459D01*
Y32900D01*
D02*
G37*
G36*
X207618Y36397D02*
X197276D01*
Y26055D01*
X197629D01*
X199315Y26322D01*
X200938Y26849D01*
X202458Y27624D01*
X203839Y28627D01*
X205046Y29834D01*
X206049Y31215D01*
X206824Y32735D01*
X207351Y34359D01*
X207618Y36044D01*
Y36397D01*
D02*
G37*
G36*
X196276D02*
X185933D01*
Y36044D01*
X186200Y34359D01*
X186727Y32735D01*
X187502Y31215D01*
X188505Y29834D01*
X189712Y28627D01*
X191093Y27624D01*
X192613Y26849D01*
X194237Y26322D01*
X195922Y26055D01*
X196276D01*
Y36397D01*
D02*
G37*
G36*
X76516D02*
X66173D01*
Y26055D01*
X66527D01*
X68212Y26322D01*
X69835Y26849D01*
X71356Y27624D01*
X72737Y28627D01*
X73943Y29834D01*
X74947Y31215D01*
X75721Y32735D01*
X76249Y34359D01*
X76516Y36044D01*
Y36397D01*
D02*
G37*
G36*
X65173D02*
X54831D01*
Y36044D01*
X55098Y34359D01*
X55625Y32735D01*
X56400Y31215D01*
X57403Y29834D01*
X58610Y28627D01*
X59991Y27624D01*
X61511Y26849D01*
X63134Y26322D01*
X64820Y26055D01*
X65173D01*
Y36397D01*
D02*
G37*
G36*
X340183Y26904D02*
Y22500D01*
X343571D01*
Y23082D01*
X343439Y24089D01*
X343050Y25026D01*
X342432Y25831D01*
X341627Y26449D01*
X340690Y26838D01*
X340183Y26904D01*
D02*
G37*
G36*
X339183D02*
X338677Y26838D01*
X337740Y26449D01*
X336934Y25831D01*
X336317Y25026D01*
X335928Y24089D01*
X335796Y23082D01*
Y22500D01*
X339183D01*
Y26904D01*
D02*
G37*
G36*
X332022Y25559D02*
X330636D01*
Y22500D01*
X332022D01*
Y25559D01*
D02*
G37*
G36*
X310853Y26904D02*
Y22500D01*
X314240D01*
Y23082D01*
X314108Y24089D01*
X313720Y25026D01*
X313102Y25831D01*
X312297Y26449D01*
X311359Y26838D01*
X310853Y26904D01*
D02*
G37*
G36*
X309853D02*
X309347Y26838D01*
X308409Y26449D01*
X307604Y25831D01*
X306986Y25026D01*
X306598Y24089D01*
X306465Y23082D01*
Y22500D01*
X309853D01*
Y26904D01*
D02*
G37*
G36*
X339183Y21500D02*
X335796D01*
Y20917D01*
X335853Y20480D01*
X335457Y20176D01*
X335331Y20228D01*
X334391D01*
X333523Y19869D01*
X332858Y19204D01*
X332498Y18336D01*
Y17396D01*
X332858Y16528D01*
X333523Y15863D01*
X334391Y15504D01*
X335331D01*
X336199Y15863D01*
X336863Y16528D01*
X337198Y17336D01*
X337663Y17609D01*
X337740Y17550D01*
X338677Y17162D01*
X339183Y17095D01*
Y21500D01*
D02*
G37*
G36*
X332022D02*
X330636D01*
Y18441D01*
X332022D01*
Y21500D01*
D02*
G37*
G36*
X343571D02*
X340183D01*
Y17095D01*
X340690Y17162D01*
X341627Y17550D01*
X342432Y18168D01*
X343050Y18973D01*
X343439Y19911D01*
X343571Y20917D01*
Y21500D01*
D02*
G37*
G36*
X309853D02*
X306465D01*
Y20917D01*
X306598Y19911D01*
X306986Y18973D01*
X307604Y18168D01*
X308409Y17550D01*
X309347Y17162D01*
X309853Y17095D01*
Y21500D01*
D02*
G37*
G36*
X314240D02*
X310853D01*
Y17095D01*
X311359Y17162D01*
X312297Y17550D01*
X312373Y17609D01*
X312838Y17336D01*
X313173Y16528D01*
X313838Y15863D01*
X314706Y15504D01*
X315646D01*
X316514Y15863D01*
X317178Y16528D01*
X317538Y17396D01*
Y18336D01*
X317178Y19204D01*
X316514Y19869D01*
X315646Y20228D01*
X314706D01*
X314580Y20176D01*
X314183Y20480D01*
X314240Y20917D01*
Y21500D01*
D02*
G37*
G36*
X39174Y15795D02*
Y13764D01*
X41206D01*
X41074Y14257D01*
X40734Y14845D01*
X40255Y15324D01*
X39668Y15663D01*
X39174Y15795D01*
D02*
G37*
G36*
X38174D02*
X37680Y15663D01*
X37093Y15324D01*
X36614Y14845D01*
X36275Y14257D01*
X36143Y13764D01*
X38174D01*
Y15795D01*
D02*
G37*
G36*
X31087Y19191D02*
X18299D01*
Y13740D01*
X34577D01*
Y15701D01*
X34458Y16604D01*
X34109Y17446D01*
X33555Y18169D01*
X32832Y18723D01*
X31990Y19072D01*
X31087Y19191D01*
D02*
G37*
G36*
X325300Y13641D02*
Y12200D01*
X326741D01*
X326482Y12824D01*
X325924Y13382D01*
X325300Y13641D01*
D02*
G37*
G36*
X324300D02*
X323676Y13382D01*
X323118Y12824D01*
X322859Y12200D01*
X324300D01*
Y13641D01*
D02*
G37*
G36*
X41206Y12764D02*
X39174D01*
Y10732D01*
X39668Y10864D01*
X40255Y11203D01*
X40734Y11683D01*
X41074Y12270D01*
X41206Y12764D01*
D02*
G37*
G36*
X38174D02*
X36143D01*
X36275Y12270D01*
X36614Y11683D01*
X37093Y11203D01*
X37680Y10864D01*
X38174Y10732D01*
Y12764D01*
D02*
G37*
G36*
X253272Y16783D02*
Y10397D01*
X258148D01*
Y11472D01*
X257965Y12864D01*
X257428Y14161D01*
X256574Y15274D01*
X255460Y16129D01*
X254163Y16666D01*
X253272Y16783D01*
D02*
G37*
G36*
X282799D02*
Y10397D01*
X287676D01*
Y11472D01*
X287493Y12864D01*
X286956Y14161D01*
X286101Y15274D01*
X284988Y16129D01*
X283691Y16666D01*
X282799Y16783D01*
D02*
G37*
G36*
X271957Y16783D02*
X271065Y16666D01*
X269768Y16129D01*
X268655Y15274D01*
X267800Y14161D01*
X267263Y12864D01*
X267080Y11472D01*
Y10397D01*
X271957D01*
Y16783D01*
D02*
G37*
G36*
X242429D02*
X241537Y16666D01*
X240241Y16129D01*
X239127Y15274D01*
X238273Y14161D01*
X237736Y12864D01*
X237552Y11472D01*
Y10397D01*
X242429D01*
Y16783D01*
D02*
G37*
G36*
X326741Y11200D02*
X325300D01*
Y9759D01*
X325924Y10018D01*
X326482Y10576D01*
X326741Y11200D01*
D02*
G37*
G36*
X324300D02*
X322859D01*
X323118Y10576D01*
X323676Y10018D01*
X324300Y9759D01*
Y11200D01*
D02*
G37*
G36*
X340774Y11545D02*
Y7539D01*
X343566D01*
Y8319D01*
X343454Y9171D01*
X343125Y9965D01*
X342602Y10646D01*
X341920Y11169D01*
X341126Y11498D01*
X340774Y11545D01*
D02*
G37*
G36*
X339774D02*
X339422Y11498D01*
X338628Y11169D01*
X337946Y10646D01*
X337423Y9965D01*
X337094Y9171D01*
X336982Y8319D01*
Y7539D01*
X339774D01*
Y11545D01*
D02*
G37*
G36*
X310262D02*
Y7539D01*
X313054D01*
Y8319D01*
X312942Y9171D01*
X312613Y9965D01*
X312090Y10646D01*
X311408Y11169D01*
X310614Y11498D01*
X310262Y11545D01*
D02*
G37*
G36*
X309262D02*
X308910Y11498D01*
X308116Y11169D01*
X307435Y10646D01*
X306911Y9965D01*
X306582Y9171D01*
X306470Y8319D01*
Y7539D01*
X309262D01*
Y11545D01*
D02*
G37*
G36*
X34577Y12740D02*
X18299D01*
Y7289D01*
X31087D01*
X31990Y7408D01*
X32832Y7756D01*
X33555Y8311D01*
X34109Y9034D01*
X34458Y9876D01*
X34577Y10779D01*
Y12740D01*
D02*
G37*
G36*
X272957Y16783D02*
Y9898D01*
Y3012D01*
X273848Y3129D01*
X275145Y3666D01*
X276259Y4521D01*
X277113Y5634D01*
X277128Y5670D01*
X277628D01*
X277643Y5634D01*
X278497Y4521D01*
X279611Y3666D01*
X280908Y3129D01*
X281799Y3012D01*
Y9898D01*
Y16783D01*
X280908Y16666D01*
X279611Y16129D01*
X278497Y15274D01*
X277643Y14161D01*
X277628Y14125D01*
X277128D01*
X277113Y14161D01*
X276259Y15274D01*
X275145Y16129D01*
X273848Y16666D01*
X272957Y16783D01*
D02*
G37*
G36*
X271957Y9398D02*
X267080D01*
Y8323D01*
X267263Y6931D01*
X267800Y5634D01*
X268655Y4521D01*
X269768Y3666D01*
X271065Y3129D01*
X271957Y3012D01*
Y9398D01*
D02*
G37*
G36*
X243429Y16783D02*
Y9898D01*
Y3012D01*
X244321Y3129D01*
X245618Y3666D01*
X246731Y4521D01*
X247586Y5634D01*
X247600Y5670D01*
X248100D01*
X248115Y5634D01*
X248970Y4521D01*
X250083Y3666D01*
X251380Y3129D01*
X252272Y3012D01*
Y9898D01*
Y16783D01*
X251380Y16666D01*
X250083Y16129D01*
X248970Y15274D01*
X248115Y14161D01*
X248100Y14125D01*
X247600D01*
X247586Y14161D01*
X246731Y15274D01*
X245618Y16129D01*
X244321Y16666D01*
X243429Y16783D01*
D02*
G37*
G36*
X242429Y9398D02*
X237552D01*
Y8323D01*
X237736Y6931D01*
X238273Y5634D01*
X239127Y4521D01*
X240241Y3666D01*
X241537Y3129D01*
X242429Y3012D01*
Y9398D01*
D02*
G37*
G36*
X287676D02*
X282799D01*
Y3012D01*
X283691Y3129D01*
X284988Y3666D01*
X286101Y4521D01*
X286956Y5634D01*
X287493Y6931D01*
X287676Y8323D01*
Y9398D01*
D02*
G37*
G36*
X258148D02*
X253272D01*
Y3012D01*
X254163Y3129D01*
X255460Y3666D01*
X256574Y4521D01*
X257428Y5634D01*
X257965Y6931D01*
X258148Y8323D01*
Y9398D01*
D02*
G37*
G36*
X343566Y6539D02*
X340774D01*
Y2533D01*
X341126Y2580D01*
X341920Y2909D01*
X342602Y3432D01*
X343125Y4114D01*
X343454Y4907D01*
X343566Y5760D01*
Y6539D01*
D02*
G37*
G36*
X339774D02*
X336982D01*
Y5760D01*
X337094Y4907D01*
X337423Y4114D01*
X337946Y3432D01*
X338628Y2909D01*
X339422Y2580D01*
X339774Y2533D01*
Y6539D01*
D02*
G37*
G36*
X313054D02*
X310262D01*
Y2533D01*
X310614Y2580D01*
X311408Y2909D01*
X312090Y3432D01*
X312613Y4114D01*
X312942Y4907D01*
X313054Y5760D01*
Y6539D01*
D02*
G37*
G36*
X309262D02*
X306470D01*
Y5760D01*
X306582Y4907D01*
X306911Y4114D01*
X307435Y3432D01*
X308116Y2909D01*
X308910Y2580D01*
X309262Y2533D01*
Y6539D01*
D02*
G37*
G36*
X67020Y125969D02*
X64453D01*
Y123500D01*
X67020D01*
Y125969D01*
D02*
G37*
G36*
X68500Y120941D02*
Y119500D01*
X69941D01*
X69682Y120124D01*
X69124Y120682D01*
X68500Y120941D01*
D02*
G37*
G36*
X87709Y116401D02*
Y114961D01*
X89149D01*
X88891Y115585D01*
X88333Y116143D01*
X87709Y116401D01*
D02*
G37*
G36*
X86709D02*
X86085Y116143D01*
X85527Y115585D01*
X85268Y114961D01*
X86709D01*
Y116401D01*
D02*
G37*
G36*
X93941Y107075D02*
X92500D01*
Y105634D01*
X93124Y105893D01*
X93682Y106451D01*
X93941Y107075D01*
D02*
G37*
G36*
X92500Y101988D02*
Y100548D01*
X93941D01*
X93682Y101172D01*
X93124Y101730D01*
X92500Y101988D01*
D02*
G37*
G36*
X93941Y99547D02*
X92500D01*
Y98107D01*
X93124Y98365D01*
X93682Y98923D01*
X93941Y99547D01*
D02*
G37*
G36*
X142941Y106700D02*
X141500D01*
Y105259D01*
X142124Y105518D01*
X142682Y106076D01*
X142941Y106700D01*
D02*
G37*
G36*
X140500D02*
X139059D01*
X139318Y106076D01*
X139876Y105518D01*
X140500Y105259D01*
Y106700D01*
D02*
G37*
G36*
X125148Y106366D02*
Y104925D01*
X126588D01*
X126330Y105549D01*
X125772Y106107D01*
X125148Y106366D01*
D02*
G37*
G36*
X124148D02*
X123524Y106107D01*
X122965Y105549D01*
X122707Y104925D01*
X124148D01*
Y106366D01*
D02*
G37*
G36*
X126588Y103925D02*
X125148D01*
Y102485D01*
X125772Y102743D01*
X126330Y103301D01*
X126588Y103925D01*
D02*
G37*
G36*
X124148D02*
X122707D01*
X122965Y103301D01*
X123524Y102743D01*
X124148Y102485D01*
Y103925D01*
D02*
G37*
G36*
X121700Y90141D02*
Y88700D01*
X123141D01*
X122882Y89324D01*
X122324Y89882D01*
X121700Y90141D01*
D02*
G37*
G36*
X145229Y98710D02*
X144524D01*
X143873Y98440D01*
X143374Y97942D01*
X143105Y97290D01*
Y96586D01*
X143371Y95943D01*
Y94802D01*
X143022Y94280D01*
X142869Y93512D01*
Y90166D01*
X143022Y89398D01*
X143457Y88747D01*
X144108Y88311D01*
X144876Y88159D01*
X145644Y88311D01*
X146295Y88747D01*
X146730Y89398D01*
X146883Y90166D01*
Y93512D01*
X146730Y94280D01*
X146381Y94802D01*
Y95943D01*
X146648Y96586D01*
Y97290D01*
X146378Y97942D01*
X145880Y98440D01*
X145229Y98710D01*
D02*
G37*
G36*
X123141Y87700D02*
X121700D01*
Y86259D01*
X122324Y86518D01*
X122882Y87076D01*
X123141Y87700D01*
D02*
G37*
G36*
X122600Y80041D02*
Y78600D01*
X124041D01*
X123782Y79224D01*
X123224Y79782D01*
X122600Y80041D01*
D02*
G37*
G36*
X121600D02*
X120976Y79782D01*
X120418Y79224D01*
X120159Y78600D01*
X121600D01*
Y80041D01*
D02*
G37*
G36*
X132376Y79941D02*
Y78500D01*
X133817D01*
X133558Y79124D01*
X133000Y79682D01*
X132376Y79941D01*
D02*
G37*
G36*
X124041Y77600D02*
X122600D01*
Y76159D01*
X123224Y76418D01*
X123782Y76976D01*
X124041Y77600D01*
D02*
G37*
G36*
X121600D02*
X120159D01*
X120418Y76976D01*
X120976Y76418D01*
X121600Y76159D01*
Y77600D01*
D02*
G37*
G36*
X133817Y77500D02*
X132376D01*
Y76059D01*
X133000Y76318D01*
X133558Y76876D01*
X133817Y77500D01*
D02*
G37*
G36*
X127500Y77594D02*
X125031D01*
Y75028D01*
X127500D01*
Y77594D01*
D02*
G37*
G36*
X134876Y74063D02*
X134108Y73910D01*
X133457Y73475D01*
X133022Y72824D01*
X132869Y72055D01*
Y71887D01*
X129996D01*
X129352Y72154D01*
X128648D01*
X127996Y71884D01*
X127498Y71386D01*
X127228Y70735D01*
Y70030D01*
X127498Y69379D01*
X127996Y68880D01*
X128648Y68611D01*
X129352D01*
X129996Y68877D01*
X132869D01*
Y68709D01*
X133022Y67941D01*
X133457Y67290D01*
X134108Y66855D01*
X134876Y66702D01*
X135644Y66855D01*
X136295Y67290D01*
X136731Y67941D01*
X136883Y68709D01*
Y72055D01*
X136731Y72824D01*
X136295Y73475D01*
X135644Y73910D01*
X134876Y74063D01*
D02*
G37*
G36*
X85833Y102587D02*
X85209Y102329D01*
X84651Y101771D01*
X84392Y101147D01*
X85833D01*
Y102587D01*
D02*
G37*
G36*
Y100147D02*
X84392D01*
X84651Y99523D01*
X85209Y98965D01*
X85833Y98706D01*
Y100147D01*
D02*
G37*
G36*
X281000Y74141D02*
Y72700D01*
X282441D01*
X282182Y73324D01*
X281624Y73882D01*
X281000Y74141D01*
D02*
G37*
G36*
X280000D02*
X279376Y73882D01*
X278818Y73324D01*
X278559Y72700D01*
X280000D01*
Y74141D01*
D02*
G37*
G36*
X282441Y71700D02*
X281000D01*
Y70259D01*
X281624Y70518D01*
X282182Y71076D01*
X282441Y71700D01*
D02*
G37*
G36*
X280000D02*
X278559D01*
X278818Y71076D01*
X279376Y70518D01*
X280000Y70259D01*
Y71700D01*
D02*
G37*
G36*
X282882Y65031D02*
X282799D01*
Y59610D01*
X288221D01*
Y59693D01*
X287993Y60837D01*
X287547Y61915D01*
X286898Y62885D01*
X286074Y63709D01*
X285104Y64357D01*
X284026Y64804D01*
X282882Y65031D01*
D02*
G37*
G36*
X281799D02*
X281716D01*
X280572Y64804D01*
X279494Y64357D01*
X278525Y63709D01*
X277700Y62885D01*
X277052Y61915D01*
X276606Y60837D01*
X276378Y59693D01*
Y59610D01*
X281799D01*
Y65031D01*
D02*
G37*
G36*
X288221Y58610D02*
X282799D01*
Y53189D01*
X282882D01*
X284026Y53416D01*
X285104Y53863D01*
X286074Y54511D01*
X286898Y55335D01*
X287547Y56305D01*
X287993Y57383D01*
X288221Y58527D01*
Y58610D01*
D02*
G37*
G36*
X281799D02*
X276378D01*
Y58527D01*
X276606Y57383D01*
X277052Y56305D01*
X277700Y55335D01*
X278525Y54511D01*
X279494Y53863D01*
X280572Y53416D01*
X281716Y53189D01*
X281799D01*
Y58610D01*
D02*
G37*
G36*
X250600Y73441D02*
Y72000D01*
X252041D01*
X251782Y72624D01*
X251224Y73182D01*
X250600Y73441D01*
D02*
G37*
G36*
X249600D02*
X248976Y73182D01*
X248418Y72624D01*
X248159Y72000D01*
X249600D01*
Y73441D01*
D02*
G37*
G36*
X252041Y71000D02*
X250600D01*
Y69559D01*
X251224Y69818D01*
X251782Y70376D01*
X252041Y71000D01*
D02*
G37*
G36*
X249600D02*
X248159D01*
X248418Y70376D01*
X248976Y69818D01*
X249600Y69559D01*
Y71000D01*
D02*
G37*
G36*
X353100Y101241D02*
Y99800D01*
X354541D01*
X354282Y100424D01*
X353724Y100982D01*
X353100Y101241D01*
D02*
G37*
G36*
X352100D02*
X351476Y100982D01*
X350918Y100424D01*
X350659Y99800D01*
X352100D01*
Y101241D01*
D02*
G37*
G36*
X354541Y98800D02*
X353100D01*
Y97359D01*
X353724Y97618D01*
X354282Y98176D01*
X354541Y98800D01*
D02*
G37*
G36*
X352100D02*
X350659D01*
X350918Y98176D01*
X351476Y97618D01*
X352100Y97359D01*
Y98800D01*
D02*
G37*
G36*
X107500Y90941D02*
X106876Y90682D01*
X106318Y90124D01*
X106059Y89500D01*
X107500D01*
Y90941D01*
D02*
G37*
G36*
Y88500D02*
X106059D01*
X106318Y87876D01*
X106876Y87318D01*
X107500Y87059D01*
Y88500D01*
D02*
G37*
G36*
X76000Y83041D02*
X75376Y82782D01*
X74818Y82224D01*
X74559Y81600D01*
X76000D01*
Y83041D01*
D02*
G37*
G36*
Y80600D02*
X74559D01*
X74818Y79976D01*
X75376Y79418D01*
X76000Y79159D01*
Y80600D01*
D02*
G37*
G36*
X65500Y89941D02*
Y88500D01*
X66941D01*
X66682Y89124D01*
X66124Y89682D01*
X65500Y89941D01*
D02*
G37*
G36*
X66941Y87500D02*
X65500D01*
Y86059D01*
X66124Y86318D01*
X66682Y86876D01*
X66941Y87500D01*
D02*
G37*
G36*
X78496Y56019D02*
Y54579D01*
X79937D01*
X79679Y55203D01*
X79120Y55761D01*
X78496Y56019D01*
D02*
G37*
G36*
X77496D02*
X76872Y55761D01*
X76314Y55203D01*
X76056Y54579D01*
X77496D01*
Y56019D01*
D02*
G37*
G36*
X89657Y68410D02*
X84342D01*
Y63291D01*
X85495D01*
Y55996D01*
X85228Y55352D01*
Y54648D01*
X85498Y53996D01*
X85996Y53498D01*
X86648Y53228D01*
X87352D01*
X88004Y53498D01*
X88502Y53996D01*
X88772Y54648D01*
Y55352D01*
X88505Y55996D01*
Y63291D01*
X89657D01*
Y68410D01*
D02*
G37*
G36*
X79937Y53579D02*
X78496D01*
Y52138D01*
X79120Y52397D01*
X79679Y52955D01*
X79937Y53579D01*
D02*
G37*
G36*
X77496D02*
X76056D01*
X76314Y52955D01*
X76872Y52397D01*
X77496Y52138D01*
Y53579D01*
D02*
G37*
G36*
X83100Y44841D02*
Y43400D01*
X84541D01*
X84282Y44024D01*
X83724Y44582D01*
X83100Y44841D01*
D02*
G37*
G36*
X82100D02*
X81476Y44582D01*
X80918Y44024D01*
X80659Y43400D01*
X82100D01*
Y44841D01*
D02*
G37*
G36*
X84541Y42400D02*
X83100D01*
Y40959D01*
X83724Y41218D01*
X84282Y41776D01*
X84541Y42400D01*
D02*
G37*
G36*
X82100D02*
X80659D01*
X80918Y41776D01*
X81476Y41218D01*
X82100Y40959D01*
Y42400D01*
D02*
G37*
G36*
X356800Y85441D02*
Y84000D01*
X358241D01*
X357982Y84624D01*
X357424Y85182D01*
X356800Y85441D01*
D02*
G37*
G36*
X355800D02*
X355176Y85182D01*
X354618Y84624D01*
X354359Y84000D01*
X355800D01*
Y85441D01*
D02*
G37*
G36*
X358241Y83000D02*
X356800D01*
Y81559D01*
X357424Y81818D01*
X357982Y82376D01*
X358241Y83000D01*
D02*
G37*
G36*
X355800D02*
X354359D01*
X354618Y82376D01*
X355176Y81818D01*
X355800Y81559D01*
Y83000D01*
D02*
G37*
G36*
X167100Y69882D02*
X165376D01*
Y66585D01*
X165727Y66654D01*
X166449Y67137D01*
X166931Y67858D01*
X167100Y68709D01*
Y69882D01*
D02*
G37*
G36*
X164376D02*
X162652D01*
Y68709D01*
X162822Y67858D01*
X163304Y67137D01*
X164025Y66654D01*
X164376Y66585D01*
Y69882D01*
D02*
G37*
%LPD*%
D11*
X98795Y137003D02*
X100299Y135498D01*
Y126825D02*
Y135498D01*
X97874Y124400D02*
X100299Y126825D01*
X97874Y122535D02*
Y124400D01*
X98795Y147246D02*
X100549Y149000D01*
X98795Y137003D02*
Y147246D01*
X100549Y149000D02*
X109000D01*
X159628Y87513D02*
X159876Y87265D01*
X159628Y87513D02*
Y91839D01*
X159876Y82000D02*
Y87265D01*
X147416Y67690D02*
X152369Y62736D01*
X171736D01*
X174984Y65984D01*
Y68414D01*
X147416Y67690D02*
Y71710D01*
X147337Y71789D02*
X147416Y71710D01*
X147337Y71789D02*
Y77705D01*
X134876Y90166D02*
X147337Y77705D01*
X134876Y90166D02*
Y91839D01*
X62000Y61000D02*
Y63000D01*
X61000Y60000D02*
X62000Y61000D01*
X56000Y60000D02*
X61000D01*
X53000Y63000D02*
X56000Y60000D01*
X63000Y105949D02*
Y106047D01*
X53000Y95949D02*
X63000Y105949D01*
X53000Y63000D02*
Y95949D01*
X154971Y76000D02*
X171047D01*
X155520Y78264D02*
X161107D01*
X149876Y83908D02*
Y91839D01*
Y83908D02*
X155520Y78264D01*
X161142Y78228D02*
X172729D01*
X161107Y78264D02*
X161142Y78228D01*
X172729D02*
X174984Y75972D01*
X78976Y81336D02*
X82150Y78163D01*
X66032Y69000D02*
X81302D01*
X82150Y69848D02*
Y78163D01*
X78976Y81336D02*
Y89465D01*
X81302Y69000D02*
X82150Y69848D01*
X64106Y67429D02*
X64461D01*
X66032Y69000D01*
X63969Y66937D02*
Y67291D01*
X64106Y67429D01*
X68000Y101276D02*
X73465D01*
X62000Y66937D02*
Y95276D01*
X68000Y101276D01*
Y104425D02*
X73465D01*
X60032Y66937D02*
Y96457D01*
X68000Y104425D01*
X62000Y63000D02*
X63969D01*
X60032D02*
X62000D01*
X174984Y68414D02*
X176953D01*
X173016D02*
X174984D01*
X159876Y82000D02*
X161876Y80000D01*
X174000D01*
X176953Y72351D02*
Y77047D01*
X174000Y80000D02*
X176953Y77047D01*
X174984Y72351D02*
Y75972D01*
X171047Y76000D02*
X172957Y74090D01*
Y72410D02*
X173016Y72351D01*
X172957Y72410D02*
Y74090D01*
D16*
X78976Y122535D02*
D03*
X82126D02*
D03*
X85276D02*
D03*
X88425D02*
D03*
X91575D02*
D03*
X94724D02*
D03*
X97874D02*
D03*
X101024D02*
D03*
Y89465D02*
D03*
X97874D02*
D03*
X94724D02*
D03*
X91575D02*
D03*
X88425D02*
D03*
X85276D02*
D03*
X82126D02*
D03*
X78976D02*
D03*
D17*
X106535Y117024D02*
D03*
Y113874D02*
D03*
Y110724D02*
D03*
Y107575D02*
D03*
Y104425D02*
D03*
Y101276D02*
D03*
Y98126D02*
D03*
Y94976D02*
D03*
X73465D02*
D03*
Y98126D02*
D03*
Y101276D02*
D03*
Y104425D02*
D03*
Y107575D02*
D03*
Y110724D02*
D03*
Y113874D02*
D03*
Y117024D02*
D03*
D18*
X63630Y134165D02*
D03*
Y129834D02*
D03*
X58118D02*
D03*
Y134165D02*
D03*
D19*
X63969Y66937D02*
D03*
X62000D02*
D03*
X60032D02*
D03*
X58063D02*
D03*
X63969Y63000D02*
D03*
X62000D02*
D03*
X60032D02*
D03*
X58063D02*
D03*
X176953Y72351D02*
D03*
X174984D02*
D03*
X173016D02*
D03*
X171047D02*
D03*
X176953Y68414D02*
D03*
X174984D02*
D03*
X173016D02*
D03*
X171047D02*
D03*
D20*
X71000Y65850D02*
D03*
Y72150D02*
D03*
X79000Y65850D02*
D03*
Y72150D02*
D03*
X87000Y65850D02*
D03*
Y72150D02*
D03*
X329473Y71149D02*
D03*
Y64850D02*
D03*
X320126Y71149D02*
D03*
Y64850D02*
D03*
X94724Y65850D02*
D03*
Y72150D02*
D03*
D21*
X70125Y159605D02*
D03*
X76424D02*
D03*
X155000Y114000D02*
D03*
X148701D02*
D03*
X102000Y145000D02*
D03*
X95701D02*
D03*
D22*
X311000Y51512D02*
D03*
Y40488D02*
D03*
D23*
X333260Y50527D02*
D03*
X337000D02*
D03*
X340740D02*
D03*
Y41472D02*
D03*
X337000D02*
D03*
X333260D02*
D03*
D24*
X75950Y176400D02*
D03*
X69650D02*
D03*
D25*
X322000Y48952D02*
D03*
Y43047D02*
D03*
X63000Y111953D02*
D03*
Y106047D02*
D03*
X128000Y78094D02*
D03*
Y84000D02*
D03*
D26*
X91047Y133000D02*
D03*
X96953D02*
D03*
X63953Y123000D02*
D03*
X58047D02*
D03*
Y141000D02*
D03*
X63953D02*
D03*
D27*
X164876Y91839D02*
D03*
X159876D02*
D03*
X154876D02*
D03*
X149876D02*
D03*
X144876D02*
D03*
X139876D02*
D03*
X134876D02*
D03*
X164876Y70382D02*
D03*
X159876D02*
D03*
X154876D02*
D03*
X149876D02*
D03*
X144876D02*
D03*
X139876D02*
D03*
X134876D02*
D03*
D28*
X330136Y22000D02*
D03*
X327577D02*
D03*
X325018D02*
D03*
X322459D02*
D03*
X319900D02*
D03*
D56*
X374358Y13240D02*
D03*
Y28831D02*
D03*
Y60012D02*
D03*
Y91193D02*
D03*
Y44421D02*
D03*
Y75602D02*
D03*
Y169169D02*
D03*
Y137988D02*
D03*
Y184760D02*
D03*
Y153579D02*
D03*
Y122397D02*
D03*
Y106807D02*
D03*
X17799Y184760D02*
D03*
Y169169D02*
D03*
Y137988D02*
D03*
Y106807D02*
D03*
Y153579D02*
D03*
Y122397D02*
D03*
Y28831D02*
D03*
Y60012D02*
D03*
Y13240D02*
D03*
Y44421D02*
D03*
Y75602D02*
D03*
Y91193D02*
D03*
D57*
X87758Y114574D02*
X91575Y118391D01*
X87209Y114461D02*
X87322Y114574D01*
X87758D01*
X82283Y107812D02*
X82735D01*
X80345Y96970D02*
Y102320D01*
X82735Y107812D02*
X86235Y111311D01*
X80345Y102320D02*
X82466Y104441D01*
X78897Y104425D02*
X82283Y107812D01*
X73465Y104425D02*
X78897D01*
X82466Y104441D02*
Y104514D01*
X88891Y109352D02*
X94002Y114462D01*
X88425Y91351D02*
X88891Y91817D01*
X88425Y89465D02*
Y91351D01*
X88891Y91817D02*
Y109352D01*
X78976Y95602D02*
X80345Y96970D01*
X75773Y101125D02*
X77739Y99159D01*
X77798D01*
X73615Y101125D02*
X75773D01*
X73465Y101276D02*
X73615Y101125D01*
X78976Y89465D02*
Y95602D01*
X72464Y94976D02*
X73465D01*
X72100Y78951D02*
Y94613D01*
X72464Y94976D01*
X71000Y72150D02*
Y76989D01*
X69232Y78757D02*
X71000Y76989D01*
X72100Y78951D02*
X78902Y72150D01*
X69232Y78757D02*
Y96036D01*
X102401Y54953D02*
X114866Y42488D01*
X104000Y93770D02*
X104469Y94239D01*
Y94370D01*
X105075Y94976D02*
X106535D01*
X98071Y59911D02*
Y74533D01*
X101835Y76894D02*
Y80720D01*
X104567Y63693D02*
X111018Y57242D01*
X99669Y75997D02*
X100236Y75430D01*
X99669Y75997D02*
Y79648D01*
X97504Y75100D02*
X98071Y74533D01*
X101835Y76894D02*
X102401Y76327D01*
X100236Y47254D02*
X103961Y43530D01*
Y42488D02*
Y43530D01*
X97504Y75100D02*
Y78751D01*
X104567Y63693D02*
Y78448D01*
X104000Y79015D02*
X104567Y78448D01*
X93055Y54896D02*
X98071Y59911D01*
X94724Y81530D02*
X97504Y78751D01*
X101024Y81530D02*
X101835Y80720D01*
X102401Y54953D02*
Y76327D01*
X104000Y79015D02*
Y93770D01*
X104469Y94370D02*
X105075Y94976D01*
X97874Y81443D02*
X99669Y79648D01*
X100236Y47254D02*
Y75430D01*
X91575Y118391D02*
Y122535D01*
X94002Y114462D02*
X97472D01*
X106535Y117024D02*
Y140366D01*
X102000Y144902D02*
X106535Y140366D01*
X102000Y144902D02*
Y145000D01*
X101024Y122535D02*
X103535D01*
X104000Y123000D01*
X76424Y159605D02*
Y163887D01*
X144876Y91839D02*
Y96938D01*
X144152Y110724D02*
X149876Y105000D01*
Y91839D02*
Y105000D01*
X159688Y92027D02*
Y94396D01*
X159628Y94456D02*
Y97370D01*
Y94456D02*
X159688Y94396D01*
Y92027D02*
X159876Y91839D01*
X148390Y53835D02*
X216165D01*
X147410Y54693D02*
X147532D01*
X148390Y53835D01*
X140772Y52165D02*
X145036Y47901D01*
X141669Y54331D02*
X144331Y51669D01*
X160145D01*
X145036Y47901D02*
X153075D01*
X160145Y51669D02*
X169326Y42488D01*
X153075Y47901D02*
X158488Y42488D01*
X144420Y64165D02*
X147542D01*
X151376Y60331D01*
X146365Y59218D02*
X149583Y56000D01*
X146645Y62000D02*
X150480Y58165D01*
X149583Y56000D02*
X217062D01*
X151376Y60331D02*
X241708D01*
X143218Y59218D02*
X146365D01*
X150480Y58165D02*
X224189D01*
X135325Y62000D02*
X146645D01*
X216165Y53835D02*
X229295Y40705D01*
X230192Y42870D02*
X238799D01*
X217062Y56000D02*
X230192Y42870D01*
X229295Y40705D02*
X239696D01*
X238799Y42870D02*
X262614Y66685D01*
X239696Y40705D02*
X256991Y58000D01*
X269882D01*
X278614Y49268D01*
X262614D02*
X269882Y42000D01*
X278614Y49268D02*
X292142D01*
X269882Y42000D02*
X295000D01*
X159876Y66969D02*
Y70382D01*
X87000Y55000D02*
Y65850D01*
X91224Y56539D02*
Y56583D01*
X94724Y60083D01*
X159887Y65113D02*
Y66958D01*
Y65113D02*
X160000Y65000D01*
X159876Y66969D02*
X159887Y66958D01*
X94724Y60083D02*
Y65850D01*
X154876Y70382D02*
Y76000D01*
X82000Y84000D02*
X82063Y84063D01*
Y89402D02*
X82126Y89465D01*
X82063Y84063D02*
Y89402D01*
X67000Y66000D02*
X67075Y65925D01*
X70925D01*
X71000Y65850D01*
X139875Y50000D02*
X147388Y42488D01*
X132669Y54331D02*
X141669D01*
X147388Y42488D02*
X147583D01*
X130876Y50000D02*
X139875D01*
X131772Y52165D02*
X140772D01*
X115098Y68839D02*
X131772Y52165D01*
X112933Y67942D02*
X130876Y50000D01*
X117264Y69736D02*
X132669Y54331D01*
X174096Y36005D02*
X174209Y35892D01*
X171538Y36005D02*
X174096D01*
X125772Y42488D02*
X131185Y37075D01*
X111018Y57242D02*
X125772Y42488D01*
X170468Y37075D02*
X171538Y36005D01*
X131185Y37075D02*
X170468D01*
X224189Y58165D02*
X230999Y51355D01*
X241708Y60331D02*
X242929Y59110D01*
X140198Y68388D02*
X144420Y64165D01*
X140198Y68388D02*
Y70061D01*
X139876Y70382D02*
X140198Y70061D01*
X230999Y49268D02*
Y51355D01*
X169326Y42488D02*
X169394D01*
X262614Y66685D02*
Y68953D01*
X230999Y49268D02*
X242134D01*
X256217Y63350D01*
Y84342D01*
X270874Y99000D01*
X149876Y70382D02*
Y76000D01*
X139938Y96938D02*
X140000Y97000D01*
X139876Y91839D02*
X139938Y91901D01*
Y96938D01*
X169280Y25894D02*
X175764Y32377D01*
X175792D01*
X171909Y21563D02*
X175841Y25495D01*
X170595Y23728D02*
X175571Y28705D01*
X111502Y21563D02*
X171909D01*
X215750Y72000D02*
X216402D01*
X200874Y86876D02*
X215750Y72000D01*
X200874Y86876D02*
Y99000D01*
X210874Y81614D02*
X216857Y75631D01*
X210874Y81614D02*
Y100467D01*
X218920Y78539D02*
Y87609D01*
X220874Y89562D01*
X215750Y87791D02*
Y101020D01*
X128982Y25894D02*
X169280D01*
X120242Y23728D02*
X170595D01*
X104000Y29065D02*
X111502Y21563D01*
X103961Y29143D02*
X104000Y29104D01*
Y29065D02*
Y29104D01*
X98823Y36720D02*
X100750D01*
X103961Y33510D01*
Y29143D02*
Y33510D01*
X93055Y42488D02*
X98823Y36720D01*
X114827Y29143D02*
Y33549D01*
Y29143D02*
X120242Y23728D01*
X109052Y37397D02*
X110979D01*
X103961Y42488D02*
X109052Y37397D01*
X110979D02*
X114827Y33549D01*
X125732Y29143D02*
Y33549D01*
Y29143D02*
X128982Y25894D01*
X220874Y89562D02*
Y99000D01*
X121884Y37397D02*
X125732Y33549D01*
X119957Y37397D02*
X121884D01*
X114866Y42488D02*
X119957Y37397D01*
X230113Y98239D02*
X230874Y99000D01*
X230113Y84861D02*
Y98239D01*
X230000Y84748D02*
X230113Y84861D01*
X207916Y103425D02*
Y105020D01*
X205750Y87126D02*
Y104123D01*
Y107186D02*
Y111020D01*
Y107186D02*
X207916Y105020D01*
Y103425D02*
X210874Y100467D01*
X200874Y109000D02*
X205750Y104123D01*
X210874Y107533D02*
X213585Y104822D01*
X210874Y107533D02*
Y109000D01*
X213585Y103185D02*
Y104822D01*
Y103185D02*
X215750Y101020D01*
Y104123D02*
X220874Y99000D01*
X215750Y104123D02*
Y111020D01*
X233585Y87209D02*
X235750Y89374D01*
Y101020D01*
X220874Y107533D02*
X222000Y106406D01*
Y104770D02*
Y106406D01*
X225750Y90959D02*
Y101020D01*
X220874Y107533D02*
Y109000D01*
X222000Y104770D02*
X225750Y101020D01*
X222000Y87209D02*
X225750Y90959D01*
X230874Y107533D02*
Y109000D01*
Y107533D02*
X233585Y104822D01*
Y103185D02*
Y104822D01*
Y103185D02*
X235750Y101020D01*
X46000Y83000D02*
Y173000D01*
X38000Y75000D02*
X46000Y83000D01*
X125000Y84000D02*
X128000D01*
X133000Y87405D02*
X138197Y82208D01*
X139792D01*
X144876Y77124D01*
X128000Y78094D02*
X128094Y78000D01*
X131876D01*
X144876Y70382D02*
Y77124D01*
X164876Y85663D02*
Y91839D01*
X162145Y82932D02*
X164876Y85663D01*
X162304Y73736D02*
X162929D01*
X164876Y71789D01*
Y70382D02*
Y71789D01*
X79000Y62000D02*
Y65850D01*
X139876Y70382D02*
Y75000D01*
X129000Y70382D02*
X134876D01*
X67953Y114563D02*
X68791D01*
X69329Y114025D02*
X73314D01*
X73465Y113874D01*
X68791Y114563D02*
X69329Y114025D01*
X67020Y115496D02*
X67953Y114563D01*
X65333Y115496D02*
X67020D01*
X106535Y110724D02*
X144152D01*
X106598Y113937D02*
X148638D01*
X106535Y113874D02*
X106598Y113937D01*
X295000Y42000D02*
X300000Y47000D01*
Y98126D01*
X291508Y49901D02*
Y98366D01*
X148638Y113937D02*
X148701Y114000D01*
X85276Y78543D02*
X87000Y76818D01*
X85276Y78543D02*
Y89465D01*
X87000Y72150D02*
Y76818D01*
X94724Y72150D02*
X94828Y72253D01*
X91575Y81618D02*
X94828Y78365D01*
Y72253D02*
Y78365D01*
X91575Y81618D02*
Y89465D01*
X78902Y72150D02*
X79000D01*
X73314Y97975D02*
X73465Y98126D01*
X71171Y97975D02*
X73314D01*
X69232Y96036D02*
X71171Y97975D01*
X38000Y75000D02*
X59225Y53775D01*
X87271Y31307D02*
X98508D01*
X64803Y53775D02*
X87271Y31307D01*
X59225Y53775D02*
X64803D01*
X18401Y75000D02*
X38000D01*
X17799Y75602D02*
X18401Y75000D01*
X110768Y67045D02*
X135325Y42488D01*
X117264Y69736D02*
Y98727D01*
X110768Y67045D02*
Y96036D01*
X112933Y67942D02*
Y97021D01*
X135325Y42488D02*
X136677D01*
X115098Y68839D02*
Y97830D01*
X117000Y98991D02*
Y99253D01*
X109269Y97535D02*
X110768Y96036D01*
X114835Y98094D02*
X115098Y97830D01*
X109269Y100685D02*
X112933Y97021D01*
X117000Y98991D02*
X117264Y98727D01*
X109269Y106984D02*
X117000Y99253D01*
X114835Y98094D02*
Y98269D01*
X109269Y103835D02*
X114835Y98269D01*
X111018Y57242D02*
Y57242D01*
X108422Y98126D02*
X109012Y97535D01*
X106535Y98126D02*
X108422D01*
X109012Y97535D02*
X109269D01*
X108422Y107575D02*
X109012Y106984D01*
X109269D01*
X106535Y107575D02*
X108422D01*
X106535Y104425D02*
X108422D01*
X109012Y103835D01*
X109269D01*
X108422Y101276D02*
X109012Y100685D01*
X109269D01*
X106535Y101276D02*
X108422D01*
X101024Y81530D02*
Y89465D01*
X97874Y81443D02*
Y89465D01*
X94724Y81530D02*
Y89465D01*
X93055Y42488D02*
Y54896D01*
X55113Y143836D02*
X57949Y141000D01*
X58047D01*
X55113Y143836D02*
Y144887D01*
X55000Y145000D02*
X55113Y144887D01*
X64051Y123000D02*
X68000Y119051D01*
X63953Y123000D02*
X64051D01*
X68000Y119000D02*
Y119051D01*
X67729Y162099D02*
Y180929D01*
Y162099D02*
X70125Y159703D01*
Y159605D02*
Y159703D01*
X65619Y133279D02*
X73465Y125434D01*
X63630Y134165D02*
X64516Y133279D01*
X65619D01*
X73465Y117024D02*
Y125434D01*
X60400Y120430D02*
X65333Y115496D01*
X60400Y120430D02*
Y120746D01*
X58146Y123000D02*
X60400Y120746D01*
X58047Y123000D02*
X58146D01*
X63630Y123323D02*
X63953Y123000D01*
X63630Y123323D02*
Y129834D01*
X58047Y141000D02*
X58118Y140929D01*
Y134165D02*
Y140929D01*
X63630Y134165D02*
Y140677D01*
X63953Y141000D01*
X58047Y123000D02*
X58118Y123071D01*
Y129834D01*
X332000Y169000D02*
X332169Y169169D01*
X374358D01*
X309837Y110037D02*
Y149798D01*
X307737Y151898D02*
X309837Y149798D01*
Y110037D02*
X310874Y109000D01*
X328557Y84443D02*
X349000Y64000D01*
X327965Y84556D02*
X328078Y84443D01*
X328557D01*
X325504Y87016D02*
X329046D01*
X351165Y64897D01*
X332058Y153579D02*
X374358D01*
X332017Y153537D02*
X332058Y153579D01*
X253800Y143472D02*
Y145638D01*
Y141307D02*
Y143472D01*
X247942Y151495D02*
X253800Y145638D01*
X232560Y156562D02*
X237626Y151495D01*
X232560Y156562D02*
Y164359D01*
X228919Y168000D02*
X232560Y164359D01*
X237626Y151495D02*
X247942D01*
X163000Y168000D02*
X228919D01*
X155000Y160000D02*
X163000Y168000D01*
X155000Y114000D02*
Y160000D01*
X173032Y136842D02*
X200874Y109000D01*
X168761Y134989D02*
Y143472D01*
X173032Y136842D02*
Y147351D01*
X168761Y151623D02*
Y160401D01*
Y151623D02*
X173032Y147351D01*
X168761Y134989D02*
X183857Y119892D01*
X154938Y113938D02*
X155000Y114000D01*
X154876Y91839D02*
X154938Y91901D01*
Y113938D01*
X332160Y103000D02*
X333131Y102029D01*
X332161Y95989D02*
Y99568D01*
X332000Y87125D02*
Y95828D01*
X349000Y73187D02*
Y86209D01*
X333180Y102029D02*
X349000Y86209D01*
X332000Y95828D02*
X332161Y95989D01*
X332000Y103000D02*
X332160D01*
X333131Y102029D02*
X333180D01*
X354563Y75602D02*
X374358D01*
X332000Y106783D02*
X351165Y87618D01*
Y79000D02*
Y87618D01*
Y79000D02*
X354563Y75602D01*
X332000Y106783D02*
X332000D01*
X353331Y46260D02*
Y65794D01*
X355170Y44421D02*
X374358D01*
X353331Y46260D02*
X355170Y44421D01*
X349000Y20650D02*
X356410Y13240D01*
X349000Y20650D02*
Y64000D01*
X356410Y13240D02*
X374358D01*
X351165Y34835D02*
Y64897D01*
X357170Y28831D02*
X374358D01*
X351165Y34835D02*
X357170Y28831D01*
X349000Y73187D02*
X355496Y66691D01*
Y61059D02*
Y66691D01*
X332000Y87125D02*
X353331Y65794D01*
X355496Y61059D02*
X356543Y60012D01*
X374358D01*
X335675Y122397D02*
X374358D01*
X333913Y124000D02*
X334072D01*
X335675Y122397D01*
X341193Y106807D02*
X374358D01*
X334000Y114000D02*
X341193Y106807D01*
X332000Y111000D02*
X351807Y91193D01*
X374358D01*
X373346Y139000D02*
X374358Y137988D01*
X332000Y139000D02*
X373346D01*
X242929Y59110D02*
Y81055D01*
X260874Y99000D01*
X280874Y87212D02*
Y99000D01*
X262614Y68953D02*
X280874Y87212D01*
X300000Y98126D02*
X300874Y99000D01*
X290874D02*
X291508Y98366D01*
Y49901D02*
X292142Y49268D01*
X285750Y104123D02*
X290874Y99000D01*
X285750Y104123D02*
Y111020D01*
X266671Y130098D02*
X285750Y111020D01*
X256504Y130098D02*
X266671D01*
X295750Y104123D02*
X300874Y99000D01*
X295750Y104123D02*
Y111020D01*
X262843Y132264D02*
X274506D01*
X295750Y111020D01*
X253800Y141307D02*
X262843Y132264D01*
X275750Y104123D02*
Y111020D01*
X250166Y127933D02*
X258837D01*
X275750Y111020D01*
X245296Y141307D02*
Y143472D01*
Y141307D02*
X256504Y130098D01*
X236792Y141307D02*
X250166Y127933D01*
X275750Y104123D02*
X280874Y99000D01*
X236792Y141307D02*
Y143472D01*
X244064Y125768D02*
X251002D01*
X265750Y111020D01*
X228288Y141544D02*
Y143472D01*
Y141544D02*
X244064Y125768D01*
X265750Y104123D02*
Y111020D01*
Y104123D02*
X270874Y99000D01*
X255750Y104123D02*
X260874Y99000D01*
X255750Y104123D02*
Y111020D01*
X241002Y125768D02*
X255750Y111020D01*
X235323Y125768D02*
X241002D01*
X219784Y141307D02*
X235323Y125768D01*
X219784Y141307D02*
Y143472D01*
X211280Y141307D02*
Y143472D01*
X226819Y125768D02*
X231002D01*
X211280Y141307D02*
X226819Y125768D01*
X231002D02*
X245750Y111020D01*
X202776Y140763D02*
X226571Y116968D01*
X235750Y104123D02*
Y111020D01*
X207009Y139593D02*
X227468Y119134D01*
X229802Y116968D02*
X235750Y111020D01*
X226571Y116968D02*
X229802D01*
X227468Y119134D02*
X230740D01*
X245750Y104123D02*
X250874Y99000D01*
X245750Y104123D02*
Y111020D01*
X230740Y119134D02*
X240874Y109000D01*
X202776Y140763D02*
Y143472D01*
X207009Y139593D02*
Y147586D01*
X202776Y151819D02*
Y160480D01*
Y151819D02*
X207009Y147586D01*
X235750Y104123D02*
X240874Y99000D01*
X225750Y104123D02*
Y111020D01*
X210580Y127517D02*
X212356D01*
X230874Y109000D01*
X198505Y139593D02*
X210580Y127517D01*
X209683Y125352D02*
X211418D01*
X225750Y111020D01*
X194272Y140763D02*
X209683Y125352D01*
X194272Y140763D02*
Y143472D01*
Y152055D02*
Y160480D01*
Y152055D02*
X198505Y147823D01*
Y139593D02*
Y147823D01*
X225750Y104123D02*
X230874Y99000D01*
X190001Y139593D02*
Y154083D01*
Y139593D02*
X202076Y127517D01*
X202356D01*
X220874Y109000D01*
X201418Y125352D02*
X215750Y111020D01*
X185768Y140763D02*
Y143472D01*
Y140763D02*
X201179Y125352D01*
X201418D01*
X185768Y158315D02*
Y160480D01*
Y158315D02*
X190001Y154083D01*
X181536Y138338D02*
Y147351D01*
Y138338D02*
X210874Y109000D01*
X177264Y151623D02*
Y160480D01*
Y151623D02*
X181536Y147351D01*
X189997Y123752D02*
X193018D01*
X205750Y111020D01*
X177264Y136484D02*
Y143472D01*
Y136484D02*
X189997Y123752D01*
X183857Y116016D02*
Y119892D01*
Y116016D02*
X200874Y99000D01*
D58*
X98795Y157000D02*
X123039Y181244D01*
X87209Y153209D02*
X121000Y187000D01*
X317000D01*
X87209Y130298D02*
Y153209D01*
X97949Y160051D02*
X122142Y184244D01*
X123039Y181244D02*
X313859D01*
X122142Y184244D02*
X194000D01*
X302461Y40420D02*
X310353Y32527D01*
Y22000D02*
Y32527D01*
X313630Y73800D02*
Y94442D01*
X310874Y77529D02*
Y99000D01*
X302461Y40420D02*
Y69116D01*
X311000Y51512D02*
X311984D01*
X313559Y53086D01*
Y73729D02*
X313630Y73800D01*
Y94442D02*
X317236Y98048D01*
X302461Y69116D02*
X310874Y77529D01*
X313559Y53086D02*
Y73729D01*
X81697Y128015D02*
Y155134D01*
X81416Y155416D02*
X81697Y155134D01*
X83000Y157000D02*
Y175657D01*
X81697Y155697D02*
X83000Y157000D01*
X59000Y111953D02*
X63000D01*
X347240Y184760D02*
X374358D01*
X347000Y185000D02*
X347240Y184760D01*
X64527Y107575D02*
X78238D01*
X82126Y111463D01*
Y122535D01*
X131839Y91839D02*
X134876D01*
X128000Y88000D02*
X131839Y91839D01*
X128000Y84000D02*
Y88000D01*
X64130Y110724D02*
X73465D01*
X63000Y111854D02*
X64130Y110724D01*
X63000Y111854D02*
Y111953D01*
X43341Y184760D02*
X43365Y184736D01*
X17799Y184760D02*
X43341D01*
X43365Y184736D02*
X51000Y177101D01*
Y119000D02*
Y177101D01*
Y119000D02*
X58047Y111953D01*
X95701Y154752D02*
X97949Y157000D01*
X211280Y160480D02*
X219784D01*
X38994Y13264D02*
X62628Y36898D01*
X65673D01*
X38674Y13264D02*
X38994D01*
X17811Y13252D02*
X38662D01*
X38674Y13264D01*
X17799Y13240D02*
X17811Y13252D01*
X95701Y145000D02*
Y154752D01*
X63984Y107130D02*
X64083D01*
X64527Y107575D01*
X63000Y106047D02*
Y106146D01*
X63984Y107130D01*
X77729Y180929D02*
X82257Y176400D01*
X83000Y175657D01*
X75950Y176400D02*
X82257D01*
X79014Y122573D02*
Y125332D01*
X78976Y122535D02*
X79014Y122573D01*
Y125332D02*
X81697Y128015D01*
X82088Y122573D02*
X82126Y122535D01*
X82088Y122573D02*
Y127623D01*
X81697Y128015D02*
X82088Y127623D01*
X84453Y129156D02*
Y154555D01*
X89000Y159103D01*
Y159756D01*
X97949Y157000D02*
X98795D01*
X194000Y184244D02*
X194244Y184000D01*
X317000Y187000D02*
X324863Y179137D01*
X313859Y181244D02*
X319351Y175751D01*
Y131846D02*
Y175751D01*
X322748Y77874D02*
X328587Y72035D01*
X315000Y184000D02*
X322107Y176893D01*
X317236Y129732D02*
X319351Y131846D01*
X317236Y98048D02*
Y129732D01*
X322107Y130705D02*
Y176893D01*
X322748Y77874D02*
Y127448D01*
X324863Y129563D02*
Y179137D01*
X319992Y76733D02*
Y128590D01*
X322748Y127448D02*
X324863Y129563D01*
X319992Y76733D02*
X320126Y76599D01*
X319992Y128590D02*
X322107Y130705D01*
X320126Y71149D02*
Y76599D01*
X85276Y122535D02*
Y128333D01*
X84453Y129156D02*
X85276Y128333D01*
X96855Y133000D02*
X96953D01*
X94724Y122535D02*
Y128244D01*
X95870Y129390D01*
Y132016D01*
X96855Y133000D01*
X91537Y122573D02*
Y132510D01*
Y122573D02*
X91575Y122535D01*
X91047Y133000D02*
X91537Y132510D01*
X88425Y122535D02*
Y129081D01*
X87209Y130298D02*
X88425Y129081D01*
X194244Y184000D02*
X315000D01*
X329375Y71149D02*
X329473D01*
X328587Y71937D02*
X329375Y71149D01*
X328587Y71937D02*
Y72035D01*
X262304Y143472D02*
Y160480D01*
X309762Y7039D02*
X340274D01*
X283728Y8468D02*
X308580D01*
X309762Y7039D02*
Y7286D01*
X282299Y9898D02*
X283728Y8468D01*
X308580D02*
X309762Y7286D01*
X242929Y9898D02*
X282299D01*
X337000Y46000D02*
X343847D01*
X331468D02*
X337000D01*
X345000Y28399D02*
Y44847D01*
X343847Y46000D02*
X345000Y44847D01*
X339683Y22000D02*
Y23082D01*
X345000Y28399D01*
X322000Y48952D02*
X328516D01*
X331468Y46000D01*
D59*
X321110Y58000D02*
Y63964D01*
Y58000D02*
X327107Y52004D01*
X320126Y64850D02*
X320224D01*
X321110Y63964D01*
X313830Y14618D02*
X326007D01*
X311106Y17342D02*
Y21246D01*
Y17342D02*
X313830Y14618D01*
X326007D02*
X330136Y18747D01*
X310353Y22000D02*
X311106Y21246D01*
X334332Y60089D02*
X336570D01*
X329473Y64850D02*
X329571D01*
X336570Y60089D02*
X340445Y56214D01*
Y50823D02*
Y56214D01*
X329571Y64850D02*
X334332Y60089D01*
X317948Y40488D02*
X319539D01*
X311000D02*
X317948D01*
X328516Y59000D02*
X330697D01*
X336705Y50823D02*
X337000Y50527D01*
X336705Y50823D02*
Y52992D01*
X330697Y59000D02*
X336705Y52992D01*
X327107Y52004D02*
X332965D01*
X333260Y50527D02*
Y51709D01*
X332965Y52004D02*
X333260Y51709D01*
X340445Y50823D02*
X340740Y50527D01*
X337000Y41472D02*
Y46000D01*
X330136Y22000D02*
X339683D01*
X330136Y18747D02*
Y22000D01*
X330136D02*
X330136D01*
X322000Y35000D02*
Y42948D01*
X319539Y40488D02*
X322000Y42948D01*
Y43047D01*
X319900Y22000D02*
X319900D01*
X319900D02*
Y32900D01*
X322000Y35000D01*
X333260D02*
Y41472D01*
X330260Y32000D02*
X333260Y35000D01*
X328000Y32000D02*
X330260D01*
X335441Y29441D02*
X341000Y35000D01*
X325018Y25252D02*
X329207Y29441D01*
X335441D01*
X322459Y26459D02*
X328000Y32000D01*
X322459Y22000D02*
Y26459D01*
X341000Y35000D02*
Y41212D01*
X340740Y41472D02*
X341000Y41212D01*
X325018Y22000D02*
X325018D01*
X325018D02*
Y25252D01*
D60*
X252772Y9898D02*
D03*
X272457D02*
D03*
X242929D02*
D03*
X282299D02*
D03*
D61*
X262614Y68953D02*
D03*
X233087Y49268D02*
D03*
X242929Y59110D02*
D03*
X262614Y49268D02*
D03*
X282299Y59110D02*
D03*
X292142Y49268D02*
D03*
D62*
X77729Y180929D02*
D03*
D63*
X67729D02*
D03*
D64*
X307737Y151898D02*
D03*
X123485D02*
D03*
X196776Y36898D02*
D03*
X65673D02*
D03*
D65*
X168761Y160401D02*
D03*
X177264Y160480D02*
D03*
X185768D02*
D03*
X194272D02*
D03*
X202776D02*
D03*
X211280D02*
D03*
X219784D02*
D03*
X228288D02*
D03*
X236792D02*
D03*
X245296D02*
D03*
X253800D02*
D03*
X262304D02*
D03*
Y143472D02*
D03*
X253800D02*
D03*
X245296D02*
D03*
X236792D02*
D03*
X228288D02*
D03*
X219784D02*
D03*
X211280D02*
D03*
X202776D02*
D03*
X194272D02*
D03*
X185768D02*
D03*
X177264D02*
D03*
X168761D02*
D03*
D66*
X93055Y42488D02*
D03*
D67*
X103961D02*
D03*
X114866D02*
D03*
X125772D02*
D03*
X136677D02*
D03*
X147583D02*
D03*
X158488D02*
D03*
X169394D02*
D03*
X98508Y31307D02*
D03*
X109413D02*
D03*
X120319D02*
D03*
X131224D02*
D03*
X142130D02*
D03*
X153035D02*
D03*
X163941D02*
D03*
D68*
X334861Y17866D02*
D03*
X315176D02*
D03*
X38674Y13264D02*
D03*
D69*
X340274Y7039D02*
D03*
X309762D02*
D03*
D70*
X339683Y22000D02*
D03*
X310353D02*
D03*
D71*
X310874Y109000D02*
D03*
X300874D02*
D03*
X290874D02*
D03*
X280874D02*
D03*
X270874D02*
D03*
X260874D02*
D03*
X250874D02*
D03*
X240874D02*
D03*
X270874Y99000D02*
D03*
X260874D02*
D03*
X250874D02*
D03*
X240874D02*
D03*
X230874D02*
D03*
X220874D02*
D03*
X210874D02*
D03*
X280874D02*
D03*
X290874D02*
D03*
X300874D02*
D03*
X310874D02*
D03*
X200874Y109000D02*
D03*
X210874D02*
D03*
X220874D02*
D03*
X230874D02*
D03*
D72*
X200874Y99000D02*
D03*
D73*
X86333Y100647D02*
D03*
X87209Y114461D02*
D03*
X92000Y107575D02*
D03*
X86005D02*
D03*
X82466Y104514D02*
D03*
X86235Y111311D02*
D03*
X77798Y99159D02*
D03*
X122100Y78100D02*
D03*
X121200Y88200D02*
D03*
X141000Y107200D02*
D03*
X124648Y104425D02*
D03*
X253700Y43700D02*
D03*
X232100Y69200D02*
D03*
X250100Y71500D02*
D03*
X280500Y72200D02*
D03*
X336100Y68200D02*
D03*
X308700Y62600D02*
D03*
X328100Y43800D02*
D03*
X311300Y33400D02*
D03*
X324800Y11700D02*
D03*
X352600Y99300D02*
D03*
X356300Y83500D02*
D03*
X82600Y42900D02*
D03*
X50900Y164300D02*
D03*
X37600Y159700D02*
D03*
X38424Y143725D02*
D03*
X50700Y134100D02*
D03*
X37300Y128500D02*
D03*
X37900Y112900D02*
D03*
X39700Y94700D02*
D03*
X35100Y52200D02*
D03*
X37600Y66100D02*
D03*
Y82200D02*
D03*
X42300Y74800D02*
D03*
X59000Y106000D02*
D03*
X77996Y54079D02*
D03*
X88300Y83000D02*
D03*
X76000Y89600D02*
D03*
X76500Y81100D02*
D03*
X65000Y88000D02*
D03*
X108000Y79000D02*
D03*
Y89000D02*
D03*
X92000Y100048D02*
D03*
X110382Y127000D02*
D03*
X112000Y119000D02*
D03*
X151000Y137000D02*
D03*
X160000Y156449D02*
D03*
Y145415D02*
D03*
X175000Y84434D02*
D03*
X171000Y91000D02*
D03*
X97472Y114462D02*
D03*
X81416Y155416D02*
D03*
X59000Y112000D02*
D03*
X347000Y185000D02*
D03*
X109000Y149000D02*
D03*
X104000Y123000D02*
D03*
X76424Y163887D02*
D03*
X78619Y107956D02*
D03*
X144876Y96938D02*
D03*
X159628Y97370D02*
D03*
X147410Y54693D02*
D03*
X87000Y55000D02*
D03*
X91224Y56539D02*
D03*
X160000Y65000D02*
D03*
X82000Y84000D02*
D03*
X67000Y66000D02*
D03*
X154971Y76000D02*
D03*
X174209Y35892D02*
D03*
X143218Y59218D02*
D03*
X135325Y62000D02*
D03*
X149876Y76000D02*
D03*
X140000Y97000D02*
D03*
X175792Y32377D02*
D03*
X175571Y28705D02*
D03*
X175841Y25495D02*
D03*
X216402Y72000D02*
D03*
X216857Y75631D02*
D03*
X218920Y78539D02*
D03*
X215750Y87791D02*
D03*
X230000Y84748D02*
D03*
X205750Y87126D02*
D03*
X233585Y87209D02*
D03*
X222000D02*
D03*
X46000Y173000D02*
D03*
X125000Y84000D02*
D03*
X133000Y87405D02*
D03*
X131876Y78000D02*
D03*
X162145Y82932D02*
D03*
X162304Y73736D02*
D03*
X79000Y62000D02*
D03*
X139876Y75000D02*
D03*
X129000Y70382D02*
D03*
X43365Y184736D02*
D03*
X97949Y157000D02*
D03*
X55000Y145000D02*
D03*
X68000Y119000D02*
D03*
X89000Y159756D02*
D03*
X97949Y160051D02*
D03*
X332000Y169000D02*
D03*
X327965Y84556D02*
D03*
X325504Y87016D02*
D03*
X332017Y153537D02*
D03*
X332161Y99568D02*
D03*
X333913Y124000D02*
D03*
X334000Y114000D02*
D03*
X332000Y103000D02*
D03*
Y106783D02*
D03*
Y111000D02*
D03*
Y139000D02*
D03*
X317948Y40488D02*
D03*
X328516Y59000D02*
D03*
M02*
