G04*
G04 #@! TF.GenerationSoftware,Altium Limited,Altium Designer,21.1.1 (26)*
G04*
G04 Layer_Color=16711935*
%FSLAX25Y25*%
%MOIN*%
G70*
G04*
G04 #@! TF.SameCoordinates,C9F6B278-B4AD-4305-9E7D-9AC12232687F*
G04*
G04*
G04 #@! TF.FilePolarity,Positive*
G04*
G01*
G75*
%ADD14C,0.00394*%
D14*
X1669Y34425D02*
X834Y34201D01*
X224Y33590D01*
X0Y32756D01*
Y5003D02*
X96Y4027D01*
X381Y3089D01*
X843Y2225D01*
X1464Y1467D01*
X2222Y845D01*
X3087Y383D01*
X4025Y99D01*
X5000Y3D01*
X30116Y174761D02*
X31024Y175030D01*
X31737Y175654D01*
X32125Y176518D01*
X32116Y177465D01*
X31712Y178322D01*
X30987Y178932D01*
X30074Y179184D01*
X1833Y174761D02*
X916Y174515D01*
X245Y173845D01*
X-1Y172928D01*
X30050Y34426D02*
X30950Y34710D01*
X31650Y35344D01*
X32023Y36210D01*
X32002Y37154D01*
X31591Y38003D01*
X30863Y38605D01*
X29952Y38849D01*
X0Y40518D02*
X224Y39684D01*
X835Y39073D01*
X1669Y38849D01*
X392052Y141852D02*
X391816Y142710D01*
X391182Y143335D01*
X390321Y143559D01*
X392043Y32690D02*
X391817Y33527D01*
X391202Y34139D01*
X390365Y34362D01*
X361989Y38786D02*
X361029Y38567D01*
X360259Y37953D01*
X359832Y37066D01*
Y36082D01*
X360259Y35195D01*
X361029Y34581D01*
X361989Y34362D01*
X361946Y147984D02*
X360986Y147764D01*
X360216Y147151D01*
X359789Y146264D01*
Y145279D01*
X360216Y144392D01*
X360986Y143779D01*
X361946Y143559D01*
X-0Y180975D02*
X240Y180080D01*
X895Y179424D01*
X1791Y179184D01*
X5000Y197968D02*
X4025Y197872D01*
X3087Y197587D01*
X2222Y197125D01*
X1464Y196503D01*
X843Y195746D01*
X381Y194881D01*
X96Y193943D01*
X-0Y192968D01*
X392080D02*
X391984Y193943D01*
X391699Y194881D01*
X391237Y195746D01*
X390615Y196503D01*
X389858Y197125D01*
X388993Y197587D01*
X388055Y197872D01*
X387080Y197968D01*
X387052Y0D02*
X388027Y96D01*
X388965Y381D01*
X389829Y843D01*
X390587Y1464D01*
X391209Y2222D01*
X391671Y3087D01*
X391955Y4025D01*
X392052Y5000D01*
X390347Y38786D02*
X391195Y39013D01*
X391816Y39634D01*
X392043Y40482D01*
X390303Y147984D02*
X391177Y148218D01*
X391817Y148857D01*
X392051Y149732D01*
X1669Y34426D02*
X30050D01*
X0Y5003D02*
Y32756D01*
X5000Y-0D02*
X387052Y0D01*
X1833Y174761D02*
X30116D01*
X0Y40518D02*
Y172928D01*
X-1D02*
X0D01*
X1791Y179184D02*
X30074D01*
X1669Y38849D02*
X29952D01*
X392052Y5000D02*
Y32690D01*
X392043D02*
X392052D01*
X392047Y40482D02*
Y141852D01*
X392043Y40482D02*
X392047D01*
X390365Y34362D02*
Y34362D01*
X361989D02*
X390365D01*
X361989Y38786D02*
X390347D01*
X392043Y141852D02*
X392052D01*
X361946Y143559D02*
X390321D01*
X361946Y147984D02*
X390303D01*
X392051Y149732D02*
Y192968D01*
X392080D01*
X5000Y197968D02*
X387080D01*
X-0Y180984D02*
Y192968D01*
Y180984D02*
X0D01*
X361989Y34362D02*
Y34362D01*
M02*
