M48
;Layer_Color=9474304
;FILE_FORMAT=2:5
INCH,TZ
;TYPE=PLATED
T1F00S00C0.01181
T2F00S00C0.01968
T4F00S00C0.03150
T6F00S00C0.03543
T7F00S00C0.04000
T8F00S00C0.04724
T9F00S00C0.05118
T10F00S00C0.12520
T11F00S00C0.12598
;TYPE=NON_PLATED
T12F00S00C0.03150
%
T01
X356300Y83500
X352600Y99300
X332161Y99568
X332000Y103000
Y106783
Y111000
X334000Y114000
X327965Y84556
X325504Y87016
X336100Y68200
X328516Y59000
X328100Y43800
X317948Y40488
X311300Y33400
X308700Y62600
X280500Y72200
X250100Y71500
X232100Y69200
X230000Y84748
X233585Y87209
X222000
X215750Y87791
X205750Y87126
X218920Y78539
X216857Y75631
X216402Y72000
X253700Y43700
X324800Y11700
X175841Y25495
X175571Y28705
X175792Y32377
X174209Y35892
X160000Y65000
X162304Y73736
X162145Y82932
X154971Y76000
X149876
X139876Y75000
X131876Y78000
X122100Y78100
X125000Y84000
X121200Y88200
X133000Y87405
X140000Y97000
X144876Y96938
X141000Y107200
X124648Y104425
X108000Y89000
Y79000
X88300Y83000
X82000Y84000
X76500Y81100
X76000Y89600
X77798Y99159
X78619Y107956
X82466Y104514
X86005Y107575
X86235Y111311
X87209Y114461
X97472Y114462
X92000Y107575
Y100048
X86333Y100647
X59000Y106000
Y112000
X37900Y112900
X39700Y94700
X37600Y82200
X42300Y74800
X37600Y66100
X35100Y52200
X77996Y54079
X79000Y62000
X87000Y55000
X91224Y56539
X82600Y42900
X67000Y66000
X65000Y88000
X129000Y70382
X135325Y62000
X143218Y59218
X147410Y54693
X159628Y97370
X171000Y91000
X175000Y84434
X160000Y145415
Y156449
X151000Y137000
X110382Y127000
X112000Y119000
X104000Y123000
X109000Y149000
X97949Y157000
Y160051
X89000Y159756
X81416Y155416
X76424Y163887
X50900Y164300
X46000Y173000
X43365Y184736
X37600Y159700
X38424Y143725
X37300Y128500
X50700Y134100
X55000Y145000
X68000Y119000
X333913Y124000
X332000Y139000
X332017Y153537
X332000Y169000
X347000Y185000
T02
X38674Y13264
T04
X168761Y143472
X177264
X185768
Y160480
X177264
X168761Y160401
X194272Y160480
X202776
X211280
X219784
X228288
X236792
X245296
X253800
X262304
Y143472
X253800
X245296
X236792
X228288
X219784
X211280
X202776
X194272
T06
X67729Y180929
X77729
T07
X200874Y99000
X210874
X220874
X230874
X240874
Y109000
X250874
X260874
X270874
X280874
X290874
X300874
X310874
Y99000
X300874
X290874
X280874
X270874
X260874
X250874
X230874Y109000
X220874
X210874
X200874
T08
X98508Y31307
X109413
X120319
X131224
X142130
X153035
X163941
X169394Y42488
X158488
X147583
X136677
X125772
X114866
X103961
X93055
T09
X242929Y9898
X252772
X272457
X282299
Y59110
X292142Y49268
X262614
Y68953
X242929Y59110
X233087Y49268
T10
X123485Y151898
X307737
T11
X196776Y36898
X65673
T12
X315176Y17866
X334861
M30
